<svg width="45" height="51" viewBox="0 0 45 51" fill="none" xmlns="http://www.w3.org/2000/svg">
<path d="M33.3492 18.3637C36.6325 20.7106 40.6547 22.0914 44.9988 22.0914V13.7327C44.1766 13.7329 43.3566 13.6471 42.5522 13.4767V20.0562C38.2085 20.0562 34.1868 18.6755 30.9029 16.3288V33.3867C30.9029 41.9201 23.9848 48.8371 15.4517 48.8371C12.2678 48.8371 9.30832 47.8746 6.85002 46.2238C9.65584 49.0926 13.5687 50.8721 17.8975 50.8721C26.4313 50.8721 33.3496 43.9551 33.3496 35.4214V18.3637H33.3492ZM36.3674 9.93076C34.6894 8.09775 33.5876 5.72888 33.3492 3.10995V2.0349H31.0308C31.6144 5.36344 33.6052 8.20713 36.3674 9.93076ZM12.2472 39.6757C11.3097 38.4467 10.803 36.943 10.8053 35.397C10.8053 31.4943 13.9695 28.3298 17.8734 28.3298C18.6009 28.3294 19.324 28.4411 20.0174 28.6609V20.1153C19.2071 20.0043 18.3894 19.957 17.572 19.9744V26.6259C16.8782 26.4059 16.1547 26.2942 15.4269 26.2949C11.5232 26.2949 8.3591 29.459 8.3591 33.3623C8.3591 36.1222 9.94061 38.5117 12.2472 39.6757Z" fill="#FF004F"/>
<path d="M30.9029 16.3286C34.187 18.6753 38.2083 20.056 42.5522 20.056V13.4765C40.1275 12.96 37.9811 11.6931 36.3672 9.93076C33.6048 8.20696 31.6144 5.36327 31.0308 2.0349H24.9413V35.4211C24.9274 39.3133 21.7686 42.4647 17.8731 42.4647C15.5777 42.4647 13.5383 41.3707 12.2469 39.6755C9.94061 38.5117 8.35893 36.1221 8.35893 33.3624C8.35893 29.4595 11.523 26.2951 15.4267 26.2951C16.1747 26.2951 16.8956 26.4115 17.5718 26.626V19.9746C9.18844 20.1478 2.44635 26.9973 2.44635 35.4213C2.44635 39.6265 4.12524 43.4386 6.8502 46.2241C9.3085 47.8746 12.2678 48.8374 15.4519 48.8374C23.9852 48.8374 30.903 41.9199 30.903 33.3867L30.9029 16.3286Z" fill="black"/>
<path d="M42.5522 13.4763V11.6976C40.3657 11.701 38.2223 11.0887 36.3672 9.93076C38.0094 11.7284 40.1717 12.9681 42.5522 13.4767M31.0307 2.03472C30.975 1.7167 30.9323 1.39654 30.9027 1.07504V0H22.4944V33.3865C22.481 37.2784 19.3222 40.4298 15.4266 40.4298C14.3222 40.4315 13.2329 40.1732 12.2467 39.6759C13.5381 41.3707 15.5776 42.4645 17.8729 42.4645C21.7682 42.4645 24.9274 39.3134 24.9411 35.4213V2.0349L31.0307 2.03472ZM17.5721 19.9744V18.0806C16.8695 17.9845 16.1612 17.9364 15.452 17.9367C6.91787 17.9367 0 24.8541 0 33.3865C0 38.7361 2.71881 43.4506 6.85037 46.2238C4.12541 43.4385 2.44652 39.6261 2.44652 35.4211C2.44652 26.9973 9.18844 20.1476 17.5721 19.9744Z" fill="#00F2EA"/>
</svg>
