<?xml version="1.0" encoding="utf-8"?>
<!-- Generator: Adobe Illustrator 27.5.0, SVG Export Plug-In . SVG Version: 6.00 Build 0)  -->
<svg version="1.1" id="Layer_1" xmlns="http://www.w3.org/2000/svg" xmlns:xlink="http://www.w3.org/1999/xlink" x="0px" y="0px"
	 viewBox="0 0 3128.979 2000" style="enable-background:new 0 0 3128.979 2000;" xml:space="preserve">
<rect x="0" style="fill:#FFFFFF;" width="3128.979" height="2000"/>
<g>
	<g>
		<g>
			<g>
				<path style="fill:#D3F0EF;" d="M2709.094,1821.552c361.644-521.002,194.918-1137.456-31.517-1300.193
					c-328.572-236.143-560.789-37.141-901.256-37.524c-366.052-0.412-341.977-309.329-853.756-269.211
					c-498.489,39.076-682.47,478.561-708.503,880.835c-26.53,409.959,59.604,632.31,111.158,726.093H2709.094z"/>
			</g>
		</g>
		<g>
			<g>
				<g>
					<g>
						<g>
							<g>
								<path style="fill:#3F9896;" d="M759.149,907.184c0,0-63.21-104.507-214.857-77.406
									C544.292,829.777,646.381,981.177,759.149,907.184z"/>
							</g>
						</g>
					</g>
				</g>
			</g>
			<g>
				<g>
					<g>
						<g>
							<g>
								<path style="fill:#7FC6A6;" d="M857.859,934.771c0,0-18.829-209.487-273.97-282.159
									C583.89,652.612,627.442,964.043,857.859,934.771z"/>
							</g>
						</g>
					</g>
				</g>
			</g>
		</g>
		<g>
			<g>
				<g>
					<g>
						<g>
							<g>
								<path style="fill:#3F9896;" d="M1631.104,829.832c0,0,14.943-80.828,116.861-99.83
									C1747.965,730.003,1719.697,849.599,1631.104,829.832z"/>
							</g>
						</g>
					</g>
				</g>
			</g>
			<g>
				<g>
					<g>
						<g>
							<g>
								<path style="fill:#7FC6A6;" d="M1575.519,870.676c0,0-37.965-136.367,105.384-242.796
									C1680.903,627.88,1727.546,834.308,1575.519,870.676z"/>
							</g>
						</g>
					</g>
				</g>
			</g>
		</g>
		<g>
			<path style="fill:#5B2750;" d="M2201.068,1821.301h-1471.8c-37.439,0-67.789-30.35-67.789-67.79v-886.75
				c0-37.439,30.35-67.79,67.789-67.79h1471.8c37.439,0,67.79,30.35,67.79,67.79v886.75
				C2268.857,1790.951,2238.507,1821.301,2201.068,1821.301z"/>
		</g>
		<g>
			<g>
				<g>
					<g>
						<g>
							<g>
								<g>
									<path style="fill:#FFFFFF;" d="M691.4,589.738c-26.936-1.456-90.079-3.945-144.95,0.859
										c-22.701,1.988-42.364-16.088-41.926-38.872c0.179-9.325,3.489-20.183,12.104-32.502
										c33.172-47.434,91.243-2.422,90.763,21.604c0,0,11.594-36.212,47.183-29.993c35.588,6.219,23.179,58.869,23.179,58.869
										s11.47-2.462,19.444,2.944C705.038,577.963,700.86,590.25,691.4,589.738z"/>
								</g>
							</g>
						</g>
					</g>
				</g>
			</g>
		</g>
		<g>
			<g>
				<g>
					<g>
						<g>
							<g>
								<g>
									<path style="fill:#FFFFFF;" d="M2490.694,876.074c26.936-1.456,90.08-3.946,144.95,0.859
										c22.7,1.988,42.364-16.088,41.926-38.872c-0.179-9.325-3.489-20.183-12.104-32.502
										c-33.172-47.434-91.243-2.422-90.763,21.605c0,0-11.594-36.213-47.183-29.993c-35.588,6.219-23.178,58.87-23.178,58.87
										s-11.47-2.462-19.444,2.944C2477.057,864.299,2481.235,876.586,2490.694,876.074z"/>
								</g>
							</g>
						</g>
					</g>
				</g>
			</g>
		</g>
		<g>
			<g>
				<g>
					<g>
						<g>
							<g>
								<g>
									<path style="fill:#FFFFFF;" d="M948.64,381.66c39.394-2.078,174.395-7.772,266.712,5.913
										c11.975,1.775,19.601-12.576,11.318-21.404c-4.845-5.163-13.109-9.368-27.01-10.341c0,0,4.787-86.184-60.313-91.893
										c-74.663-6.547-75.567,78.124-75.567,78.124s-33.935-32.216-58.411,8.628c0,0-42.298-24.448-63.635,20.707
										C939.407,376.32,943.201,381.947,948.64,381.66z"/>
								</g>
							</g>
						</g>
					</g>
				</g>
			</g>
		</g>
		<g>
			<g>
				<g>
					<g>
						<g>
							<g>
								<g>
									<path style="fill:#FFFFFF;" d="M2441.665,661.786c-26.31-1.388-116.471-5.191-178.125,3.949
										c-7.997,1.186-13.091-8.399-7.558-14.294c3.235-3.448,8.755-6.257,18.039-6.906c0,0-3.197-57.558,40.28-61.371
										c49.864-4.373,50.468,52.176,50.468,52.176s22.664-21.516,39.01,5.763c0,0,28.249-16.327,42.499,13.829
										C2447.831,658.22,2445.297,661.978,2441.665,661.786z"/>
								</g>
							</g>
						</g>
					</g>
				</g>
			</g>
		</g>
		<g>
			<path style="fill:#DCF4FF;" d="M2206.394,895.1v830.597c0,17.755-12.564,32.163-28.058,32.163H756.089
				c-17.755,0-32.14-14.408-32.14-32.163V895.1c0-17.755,14.385-32.151,32.14-32.151h1422.248c8.991,0,16.998,4.852,22.12,12.395
				C2204.177,880.794,2206.394,887.648,2206.394,895.1z"/>
		</g>
		<g>
			<path style="fill:#DCF4FF;" d="M2206.394,895.1v830.597c0,17.755-12.564,32.163-28.058,32.163H766.855v-0.328h0.147V863.526
				h-0.147v-0.577h1411.482c8.991,0,16.998,4.852,22.12,12.395C2204.177,880.794,2206.394,887.648,2206.394,895.1z"/>
		</g>
		<g>
			
				<rect x="1301.384" y="806.965" transform="matrix(-1.836970e-16 1 -1 -1.836970e-16 2509.2703 -318.3683)" style="fill:#D0F6FC;" width="224.871" height="576.972"/>
		</g>
		<g>
			<rect x="1862.851" y="917.775" style="fill:#D0F6FC;" width="343.543" height="275.701"/>
		</g>
		<g>
			
				<rect x="1139.868" y="1383.302" transform="matrix(-1.836970e-16 1 -1 -1.836970e-16 2844.6008 252.0627)" style="fill:#D0F6FC;" width="312.803" height="330.059"/>
		</g>
		<g>
			
				<rect x="712.407" y="1221.523" transform="matrix(-1.836970e-16 1 -1 -1.836970e-16 2178.9451 441.3278)" style="fill:#D0F6FC;" width="312.803" height="177.227"/>
		</g>
		<g>
			<rect x="767.906" y="862.949" style="fill:#D0F6FC;" width="177.223" height="166.31"/>
		</g>
		<g>
			
				<rect x="1644.544" y="1381.439" transform="matrix(-1.836970e-16 1 -1 -1.836970e-16 3175.2993 -259.4679)" style="fill:#D0F6FC;" width="145.68" height="152.954"/>
		</g>
		<g>
			
				<rect x="1872.231" y="1381.439" transform="matrix(-1.836970e-16 1 -1 -1.836970e-16 3402.9863 -487.1548)" style="fill:#D0F6FC;" width="145.68" height="152.954"/>
		</g>
		<g>
			<rect x="2096.279" y="1385.072" style="fill:#D0F6FC;" width="110.115" height="145.682"/>
		</g>
		<g>
			<rect x="722.249" y="905.697" style="fill:#1D1D1B;" width="3.393" height="799.036"/>
		</g>
		<g>
			<rect x="822.962" y="797.275" style="fill:#1D1D1B;" width="1302.739" height="3.393"/>
		</g>
		<g>
			<rect x="989.087" y="862.949" style="fill:#FFFFFF;" width="96.503" height="894.911"/>
		</g>
		<g>
			
				<rect x="1573.216" y="722.861" transform="matrix(-1.836970e-16 1 -1 -1.836970e-16 2929.251 -313.6833)" style="fill:#FFFFFF;" width="96.503" height="1169.846"/>
		</g>
		<g>
			
				<rect x="1500.963" y="1259.532" transform="matrix(-1 -1.224647e-16 1.224647e-16 -1 3098.429 3015.4268)" style="fill:#FFFFFF;" width="96.503" height="496.362"/>
		</g>
		<g>
			<rect x="1578.158" y="1571.045" style="fill:#FFFFFF;" width="628.232" height="60.314"/>
		</g>
		<g>
			<rect x="725.484" y="1050.887" style="fill:#FFFFFF;" width="328.944" height="60.314"/>
		</g>
		<g>
			<rect x="725.484" y="1579.644" style="fill:#FFFFFF;" width="328.944" height="60.314"/>
		</g>
		<g>
			
				<rect x="1587.798" y="1030.933" transform="matrix(-1.836970e-16 1 -1 -1.836970e-16 2847.0293 -724.8487)" style="fill:#FFFFFF;" width="396.283" height="60.314"/>
		</g>
		<g>
			<polygon style="fill:#7FC6A6;" points="1554.655,1292.042 1531.12,1292.042 1063.901,1292.042 1063.901,1037.698 
				1027.712,1037.698 1027.712,1328.231 1033.718,1328.231 1063.901,1328.231 1531.12,1328.231 1531.12,1504.366 1567.309,1504.366 
				1567.309,1292.042 			"/>
		</g>
		<g>
			<path style="fill:#ED2B47;" d="M982.165,1004.727l52.778,104.761l55.401-103.397c16.401-37.927-9.927-81.197-51.213-82.913
				c-0.611-0.026-1.224-0.042-1.84-0.05c-0.615-0.008-1.229-0.007-1.84,0.003C994.136,923.807,966.724,966.399,982.165,1004.727z
				 M1036.877,955.966c15.114,0.19,27.212,12.597,27.021,27.71c-0.191,15.114-12.597,27.212-27.711,27.021
				c-15.114-0.19-27.211-12.597-27.021-27.711C1009.357,967.874,1021.764,955.776,1036.877,955.966z"/>
		</g>
		<g>
			<g>
				<polygon style="fill:#ED2B47;" points="1447.987,1553.781 1549.214,1526.834 1549.214,1359.761 				"/>
			</g>
			<g>
				<polygon style="fill:#CE193C;" points="1650.442,1553.781 1549.214,1526.834 1549.214,1359.761 				"/>
			</g>
		</g>
		<g>
			<g>
				<g>
					
						<rect x="2000.585" y="1481.586" transform="matrix(-1.836970e-16 1 -1 -1.836970e-16 3531.6279 -521.8248)" style="fill:#D0F6FC;" width="52.283" height="46.631"/>
				</g>
			</g>
			<g>
				<g>
					
						<rect x="1976.563" y="1696.37" transform="matrix(-1.836970e-16 1 -1 -1.836970e-16 3722.3894 -283.0198)" style="fill:#D0F6FC;" width="52.283" height="46.63"/>
				</g>
			</g>
			<g>
				<g>
					
						<rect x="2130.585" y="1519.738" transform="matrix(-1.836970e-16 1 -1 -1.836970e-16 3699.7805 -613.6729)" style="fill:#D0F6FC;" width="52.283" height="46.631"/>
				</g>
			</g>
			<g>
				<g>
					
						<rect x="2488.086" y="1596.043" transform="matrix(-1.836970e-16 1 -1 -1.836970e-16 4133.5859 -894.8692)" style="fill:#D0F6FC;" width="52.283" height="46.631"/>
				</g>
			</g>
			<g>
				<g>
					
						<rect x="1855.041" y="1586.152" transform="matrix(-1.836970e-16 1 -1 -1.836970e-16 3490.6494 -271.7155)" style="fill:#D0F6FC;" width="52.283" height="46.631"/>
				</g>
			</g>
			<g>
				<g>
					
						<rect x="2165.205" y="1493.597" transform="matrix(-1.836970e-16 1 -1 -1.836970e-16 3757.0088 -723.184)" style="fill:#D0F6FC;" width="149.783" height="46.631"/>
				</g>
			</g>
			<g>
				<g>
					
						<rect x="2092.433" y="1473.108" transform="matrix(-1.836970e-16 1 -1 -1.836970e-16 3736.5195 -500.6292)" style="fill:#D0F6FC;" width="52.283" height="289.675"/>
				</g>
			</g>
			<g>
				<g>
					
						<rect x="2269.77" y="1595.337" transform="matrix(-1.836970e-16 1 -1 -1.836970e-16 3963.3137 -726.0101)" style="fill:#D0F6FC;" width="149.783" height="46.631"/>
				</g>
			</g>
			<g>
				<g>
					
						<rect x="2196.999" y="1574.847" transform="matrix(-1.836970e-16 1 -1 -1.836970e-16 3942.8247 -503.4552)" style="fill:#D0F6FC;" width="52.283" height="289.675"/>
				</g>
			</g>
			<g>
				<g>
					<g>
						<g>
							<path style="fill:#3A2645;" d="M2489.138,1720.003c0,0-196.685,32.067-199.038,30.646c-2.353-1.421-27.5-111.34-27.5-111.34
								s162.651-28.769,165.284-28.761c2.633,0.007,37.911,28.394,38.377,30.281
								C2466.727,1642.717,2489.138,1720.003,2489.138,1720.003z"/>
						</g>
					</g>
				</g>
				<g>
					<g>
						<g>
							<path style="fill:#3A2645;" d="M1881.182,1765.439c-4.716,0.458-224.422,0.944-224.422,0.944l7.91-80.209
								c0,0,33.143-49.811,50.584-48.853c17.441,0.958,121.229-15.568,139.097-3.1c17.869,12.468,33.926,2.613,42.328,32.339
								c8.402,29.725,15.012,33.07,8.351,50.953C1898.369,1735.396,1881.182,1765.439,1881.182,1765.439z"/>
						</g>
					</g>
				</g>
				<g>
					<g>
						<g>
							<g>
								<ellipse style="fill:#1A1A1A;" cx="2389.813" cy="1739.276" rx="81.034" ry="81.061"/>
							</g>
						</g>
					</g>
					<g>
						<g>
							<g>
								
									<ellipse transform="matrix(0.0066 -1 1 0.0066 634.8096 4117.5635)" style="fill:#9E9DA2;" cx="2389.813" cy="1739.276" rx="56.4" ry="56.381"/>
							</g>
						</g>
					</g>
					<g style="opacity:0.5;">
						<g>
							<g>
								<path style="fill:#9E9DA2;" d="M2421.387,1692.546c5.394,8.678,8.508,18.92,8.477,29.892
									c-0.088,31.149-25.402,56.328-56.54,56.24c-11.642-0.033-22.448-3.595-31.414-9.669
									c9.919,15.958,27.574,26.609,47.743,26.667c31.138,0.088,56.452-25.091,56.54-56.24
									C2446.249,1719.933,2436.401,1702.717,2421.387,1692.546z"/>
							</g>
						</g>
					</g>
					<g>
						<g>
							<g>
								<path style="fill:#D8D9DD;" d="M2427.519,1739.383c-0.059,20.831-16.989,37.671-37.813,37.612
									c-20.824-0.059-37.658-16.994-37.599-37.826c0.059-20.831,16.989-37.671,37.813-37.612
									C2410.744,1701.617,2427.578,1718.552,2427.519,1739.383z"/>
							</g>
						</g>
					</g>
					<g style="opacity:0.3;">
						<g>
							<g>
								<path style="fill:#D8D9DD;" d="M2410.727,1707.894c3.945,5.981,6.238,13.147,6.216,20.85
									c-0.059,20.831-16.988,37.67-37.813,37.611c-7.7-0.022-14.851-2.356-20.808-6.336c6.724,10.195,18.259,16.939,31.383,16.976
									c20.824,0.059,37.754-16.78,37.813-37.612C2427.556,1726.254,2420.88,1714.678,2410.727,1707.894z"/>
							</g>
						</g>
					</g>
				</g>
				<g>
					<g>
						<g>
							<g>
								
									<ellipse transform="matrix(0.0048 -1 1 0.0048 20.0365 3495.1494)" style="fill:#1A1A1A;" cx="1765.914" cy="1737.509" rx="81.061" ry="81.034"/>
							</g>
						</g>
					</g>
					<g>
						<g>
							<g>
								
									<ellipse transform="matrix(0.0031 -1 1 0.0031 22.8768 3497.9661)" style="fill:#9E9DA2;" cx="1765.914" cy="1737.509" rx="56.4" ry="56.381"/>
							</g>
						</g>
					</g>
					<g style="opacity:0.5;">
						<g>
							<g>
								<path style="fill:#9E9DA2;" d="M1797.488,1690.778c5.394,8.678,8.508,18.92,8.477,29.892
									c-0.088,31.149-25.402,56.328-56.54,56.24c-11.642-0.033-22.449-3.596-31.414-9.669
									c9.919,15.957,27.574,26.609,47.744,26.666c31.138,0.088,56.452-25.091,56.54-56.24
									C1822.349,1718.166,1812.502,1700.949,1797.488,1690.778z"/>
							</g>
						</g>
					</g>
					<g>
						<g>
							<g>
								<path style="fill:#D8D9DD;" d="M1803.62,1737.615c-0.059,20.832-16.988,37.671-37.813,37.612
									c-20.824-0.059-37.658-16.994-37.599-37.825s16.988-37.671,37.813-37.612
									C1786.845,1699.849,1803.679,1716.784,1803.62,1737.615z"/>
							</g>
						</g>
					</g>
					<g style="opacity:0.3;">
						<g>
							<g>
								<path style="fill:#D8D9DD;" d="M1786.828,1706.126c3.945,5.981,6.238,13.147,6.216,20.85
									c-0.059,20.831-16.988,37.671-37.813,37.612c-7.7-0.022-14.851-2.356-20.807-6.336
									c6.724,10.195,18.259,16.938,31.383,16.976c20.824,0.059,37.754-16.78,37.813-37.611
									C1803.657,1724.487,1796.981,1712.911,1786.828,1706.126z"/>
							</g>
						</g>
					</g>
				</g>
				<g>
					<g>
						<g>
							<path style="fill:#FFB357;" d="M1580.093,1659.836c6.979-45.156,29.152-54.582,94.7-67.498
								c72.329-14.253,164.237-61.137,164.237-61.137s156.737-76.245,195.106-84.937s132.651-5.91,211.852-5.057
								c79.201,0.853,125.655,22.986,165.796,54.529c40.141,31.544,109.847,55.628,109.847,55.628l12.669,2.299
								c13.028,2.365,22.487,13.727,22.45,26.968l-0.318,112.102c-0.036,12.693-8.617,23.77-20.898,26.977l-45.843,11.971l0,0
								c-3.733,0.633-7.194-2.03-7.595-5.795c-4.887-45.876-44.433-80.841-91.71-80.919c-50.27-0.083-91.613,41.107-91.724,91.378
								c-0.012,5.712,0.501,11.303,1.491,16.727c1.023,5.601-3.292,10.75-8.985,10.734l-421.59-1.194
								c-8.192-0.023-14.536-7.24-13.427-15.356c0.534-3.906,0.821-7.891,0.845-11.939c0.29-49.652-39.746-90.93-89.385-92.093
								c-51.458-1.206-93.625,40.073-93.77,91.293c-0.01,3.391,0.166,6.739,0.517,10.035c0.994,9.334-6.251,17.489-15.638,17.463
								l-60.624-0.172c-11.022-0.031-19.932-8.992-19.901-20.014l0.167-58.72
								C1578.383,1675.319,1578.903,1667.534,1580.093,1659.836z"/>
						</g>
					</g>
				</g>
				<g>
					<g>
						<g>
							<path style="fill:#CF283C;" d="M2554.041,1593.886l-49.931-0.141c-4.277-0.012-7.187,4.335-5.544,8.284l5.571,13.399
								c5.311,12.773,17.77,21.111,31.603,21.151l18.18,0.051c3.558,0.01,6.451-2.866,6.461-6.425l0.085-29.858
								C2560.476,1596.789,2557.599,1593.896,2554.041,1593.886z"/>
						</g>
					</g>
				</g>
				<g>
					<g>
						<g>
							<path style="fill:#F9E2C5;" d="M1659.651,1612.096c-27.509,4.132-59.25,30.082-59.25,30.082
								c-7.593,8.113-1.377,21.337,9.715,20.668l53.623-3.236c11.138-0.672,20.656-8.262,23.791-18.971l0,0
								C1692.795,1622.649,1688.4,1607.777,1659.651,1612.096z"/>
						</g>
					</g>
				</g>
				<g>
					<g>
						<g>
							<path style="fill:#F2932C;" d="M2556.129,1696.906c3.437-0.074,5.864,3.387,4.587,6.579
								c-3.612,9.027-11.323,16.108-21.164,18.678l-51.367,13.413c-4.183,0.709-8.061-2.275-8.51-6.493
								c-0.926-8.694-2.977-17.031-5.984-24.892c-1.019-2.663,0.925-5.526,3.776-5.587L2556.129,1696.906z"/>
						</g>
					</g>
				</g>
				<g>
					<g>
						<g>
							<path style="fill:#F2932C;" d="M1673.465,1715.532c3.9-0.084,6.9,3.345,6.389,7.212c-0.567,4.297-0.867,8.678-0.879,13.128
								c-0.011,3.763,0.184,7.478,0.573,11.135c1.103,10.357-6.936,19.406-17.352,19.376l-67.269-0.19
								c-12.231-0.035-22.118-9.978-22.083-22.208l0.049-17.408c0.014-4.936,3.963-8.96,8.898-9.067L1673.465,1715.532z"/>
						</g>
					</g>
				</g>
				<g style="opacity:0.5;">
					<g>
						<g>
							<g>
								<path style="fill:#FEB546;" d="M1837.328,1557.982l0.501,1.651c0.255,0.84,25.459,84.95,26.468,165.427l0.027,2.13
									l247.647-4.129v0.014l2.191-0.05l2.052-0.034v-0.013l177.735-4.064l0.167-1.892c0.02-0.22,2.144-22.248,18.897-43.063
									c22.163-27.536,59.934-40.55,109.218-37.626l1.815,0.107l17.175-79.485l-0.732-0.807
									c-2.651-2.925-65.485-71.816-113.837-87.037c-47.999-15.11-204.272-12.163-211.778-12.012
									c-2.815-0.15-68.122-3.208-126.708,23.725c-59.175,27.205-148.429,75.844-149.323,76.332L1837.328,1557.982z
									 M2116.226,1718.734l0.729-257.428c19.094-0.31,163.885-2.168,208.422,11.852c44.515,14.014,103.961,77.179,111.234,85.041
									l-15.946,73.797c-63.015-3.265-95.183,19.606-111.101,39.48c-14.769,18.442-18.571,37.316-19.442,43.281L2116.226,1718.734z
									 M1842.377,1560.064c11.987-6.509,92.742-50.182,147.562-75.384c52.843-24.293,111.319-23.784,122.773-23.421l-0.73,257.56
									l-243.475,4.059C1867.193,1648.713,1845.892,1572.208,1842.377,1560.064z"/>
							</g>
						</g>
					</g>
				</g>
				<g>
					<g>
						<g>
							<path style="fill:#F2932C;" d="M1845.788,1741.13c0.027-4.591-0.3-9.11-0.953-13.534c-0.785-5.314,3.331-10.117,8.889-10.233
								l454.191-9.436c4.955-0.103,8.514,4.472,7.149,9.072c-2.38,8.024-3.665,16.479-3.685,25.203
								c-0.013,5.782,0.523,11.442,1.556,16.935c1.08,5.737-3.415,11.031-9.454,11.014l-444.428-1.24
								c-8.719-0.024-15.289-7.488-14.127-15.831C1845.47,1749.17,1845.764,1745.181,1845.788,1741.13z"/>
						</g>
					</g>
				</g>
				<g>
					<g>
						<g>
							<path style="fill:#1A1A1A;" d="M2341.501,1590.479l55.568,0.157c1.059,0.003,1.92-0.853,1.923-1.912l0.016-5.752
								c0.003-1.059-0.853-1.919-1.912-1.922l-55.568-0.158c-1.059-0.003-1.919,0.853-1.922,1.912l-0.017,5.751
								C2339.587,1589.615,2340.443,1590.476,2341.501,1590.479z"/>
						</g>
					</g>
				</g>
				<g>
					<g>
						<g>
							<path style="fill:#1A1A1A;" d="M2039.877,1594.417l55.567,0.158c1.059,0.003,1.92-0.853,1.923-1.912l0.016-5.751
								c0.003-1.059-0.853-1.92-1.912-1.923l-55.568-0.157c-1.059-0.003-1.92,0.853-1.922,1.912l-0.016,5.752
								C2037.963,1593.554,2038.818,1594.414,2039.877,1594.417z"/>
						</g>
					</g>
				</g>
				<g>
					<g>
						<g>
							<path style="fill:#A4E4EA;" d="M2388.594,1566.232l-242.341,1.604c0,0-14.831-0.441-16.81-14.404
								c-1.979-13.963-1.639-73.741-1.639-73.741s1.793-11.997,13.289-12.119c6.986-0.074,65.546-4.092,122.472,3.006
								c46.437,5.79,89.35,27.129,121.836,59.811l17.153,17.256C2402.554,1547.645,2414.103,1566.064,2388.594,1566.232z"/>
						</g>
					</g>
				</g>
				<g>
					<g>
						<g>
							<path style="fill:#A4E4EA;" d="M2100.808,1487.197l-0.177,62.676c-0.023,8.143-6.289,14.814-14.191,15.109l-190.441,7.118
								c-4.372,0.163-8.648-1.824-11.143-5.524c-3.403-5.047-3.775-13.336,13.318-24.398
								c29.728-19.238,105.339-60.815,133.278-64.78c17.784-2.524,41.044-3.576,55.604-4.007
								C2094.605,1473.168,2100.83,1479.42,2100.808,1487.197z"/>
						</g>
					</g>
				</g>
				<g style="opacity:0.3;">
					<g>
						<g>
							<path style="fill:#FFFFFF;" d="M2284.828,1566.919l-47.951,0.317l-35.451-100.751c15.482,0.264,32.684,1.039,50.085,2.753
								L2284.828,1566.919z"/>
						</g>
					</g>
				</g>
				<g style="opacity:0.3;">
					<g>
						<g>
							<path style="fill:#FFFFFF;" d="M2218.677,1567.357l-18.016,0.119l-33.604-100.835c4.786-0.119,10.086-0.213,15.795-0.25
								L2218.677,1567.357z"/>
						</g>
					</g>
				</g>
				<g style="opacity:0.3;">
					<g>
						<g>
							<path style="fill:#FFFFFF;" d="M1999.279,1488.066c13.053-5.589,24.44-9.57,32.173-10.668
								c3.974-0.564,8.229-1.051,12.592-1.477l30.528,89.505l-47.448,1.773L1999.279,1488.066z"/>
						</g>
					</g>
				</g>
				<g style="opacity:0.3;">
					<g>
						<g>
							<path style="fill:#FFFFFF;" d="M2009.121,1567.872l-17.857,0.667l-22.107-66.336c4.785-2.405,9.542-4.732,14.202-6.938
								L2009.121,1567.872z"/>
						</g>
					</g>
				</g>
			</g>
			<g>
				<g>
					
						<rect x="1899.702" y="1711.102" transform="matrix(0.9998 -0.0208 0.0208 0.9998 -35.1211 43.6703)" style="fill:#1D1D1B;" width="370.048" height="2.923"/>
				</g>
			</g>
			<g>
				<g>
					
						<rect x="2081.821" y="1551.951" transform="matrix(0.0026 -1 1 0.0026 308.3374 3848.2219)" style="fill:#1D1D1B;" width="2.922" height="435.181"/>
				</g>
			</g>
			<g>
				<g>
					<path style="fill:#1D1D1B;" d="M1579.72,1718.359c1.431-40.235,4.124-69.635,4.151-69.927
						c3.616-24.691,32.227-45.337,69.569-50.129c36.973-4.744,94.307-25.912,117.24-34.792
						c21.421-8.294,115.162-53.016,116.107-53.467l-1.259-2.636c-0.943,0.45-94.585,45.125-115.903,53.379
						c-22.834,8.842-79.901,29.915-116.557,34.618c-18.526,2.378-35.823,8.779-48.706,18.023
						c-13.389,9.608-21.477,21.593-23.389,34.658c-0.036,0.37-2.737,29.847-4.171,70.169L1579.72,1718.359z"/>
				</g>
			</g>
			<g>
				<g>
					
						<rect x="2164.661" y="1566.057" transform="matrix(1 -0.0032 0.0032 1 -5.056 7.3248)" style="fill:#1D1D1B;" width="196.812" height="2.922"/>
				</g>
			</g>
			<g>
				<g>
					
						<rect x="1921.179" y="1568.194" transform="matrix(0.9995 -0.0309 0.0309 0.9995 -47.5429 62.5635)" style="fill:#1D1D1B;" width="158.907" height="2.921"/>
				</g>
			</g>
			<g>
				<g>
					
						<rect x="1916.461" y="1642.527" transform="matrix(0.6883 -0.7254 0.7254 0.6883 -607.1351 1909.0773)" style="fill:#1D1D1B;" width="2.921" height="37.003"/>
				</g>
			</g>
			<g>
				<g>
					
						<rect x="1898.282" y="1639.714" transform="matrix(0.6883 -0.7254 0.7254 0.6883 -610.7607 1895.0131)" style="fill:#1D1D1B;" width="2.921" height="37.003"/>
				</g>
			</g>
			<g>
				<g>
					
						<rect x="2496.767" y="1652.552" transform="matrix(0.6883 -0.7254 0.7254 0.6883 -433.537 2333.1091)" style="fill:#1D1D1B;" width="2.921" height="37.003"/>
				</g>
			</g>
			<g>
				<g>
					
						<rect x="2478.587" y="1649.739" transform="matrix(0.6883 -0.7254 0.7254 0.6883 -437.1625 2319.0444)" style="fill:#1D1D1B;" width="2.921" height="37.003"/>
				</g>
			</g>
			<g>
				<g>
					
						<rect x="2489.115" y="1696.589" transform="matrix(0.9992 -0.0391 0.0391 0.9992 -64.5329 99.8717)" style="fill:#1D1D1B;" width="58.515" height="2.922"/>
				</g>
			</g>
			<g>
				<g>
					<path style="fill:#1D1D1B;" d="M2541.443,1638.804c5.347,0,9.006-0.73,9.118-0.754l-0.6-2.859
						c-1.315,0.274-32.335,6.41-44.493-20.366l-2.661,1.208C2511.694,1635.603,2530.259,1638.804,2541.443,1638.804z"/>
				</g>
			</g>
			<g>
				<g>
					<path style="fill:#1D1D1B;" d="M2526.805,1553.781l0.786-2.813c-0.204-0.057-20.677-5.817-40.169-14.703
						c-3.627-1.653-7.31-3.281-10.87-4.856c-15.834-6.999-32.208-14.238-48.178-25.739l-1.708,2.37
						c16.218,11.68,32.733,18.981,48.705,26.041c3.552,1.57,7.228,3.195,10.84,4.842
						C2505.915,1547.907,2526.599,1553.724,2526.805,1553.781z"/>
				</g>
			</g>
			<g>
				<g>
					<path style="fill:#1D1D1B;" d="M1594.481,1767.826c0.891,0,1.808-0.056,2.756-0.177l-0.369-2.899
						c-13.104,1.666-20.046-11.008-21.302-13.567c-1.745-3.552-2.813-25.208,1.188-30.144c3.412-3.286,52.377-4.542,96.695-4.046
						l0.032-2.922c-0.234-0.002-23.616-0.257-47.253,0.182c-48.461,0.898-50.761,3.735-51.743,4.947
						c-5.198,6.411-3.463,29.362-1.542,33.272C1574.266,1755.161,1581.202,1767.825,1594.481,1767.826z"/>
				</g>
			</g>
		</g>
		<g>
			<path style="fill:#FE9F73;" d="M242.061,1585.062c67.102-0.705,133.932-1.469,136.73-1.164
				c17.032,1.846,34.658,4.022,52.282,6.885c0,0,151.372,18.656,163.34,22.933c21.321,7.62,90.583-4.995,90.583-4.995
				s136.605-171.66,133.544-193.253c-3.062-21.597-120.959-56.291-137.676-70.023c-10.634-8.731-128.372,19.197-155.759-4.196
				l1.049-3.322l-23.887-16.201c-2.875-2.458-4.519-3.866-4.519-3.866l-0.119,0.724l-19.304,3.56c0,0-50.493,32.201-106.818,42.813
				c-1.45,0.274-83.912-9.566-159.749-17.615C216.631,1440.108,227.842,1518.907,242.061,1585.062z"/>
			<g>
				<g>
					<g>
						<g>
							<g>
								<g>
									<path style="fill:#3A4A7C;" d="M917.359,1316.084l-32.464-26.994l-2.133-1.773l-32.464-26.994l-332.399,347.532
										c-9.349,9.774-8.456,25.424,1.944,34.071l82.621,68.698c10.4,8.647,25.949,6.67,33.853-4.306L917.359,1316.084z"/>
								</g>
							</g>
						</g>
					</g>
					<g>
						<g>
							<g>
								<g>
									<path style="fill:#4CB7D8;" d="M914.063,1326.536l-74.032-61.557c-6.124-5.092-6.96-14.184-1.869-20.307l29.793-35.831
										l96.208,79.995l-29.793,35.831C929.279,1330.791,920.187,1331.627,914.063,1326.536z"/>
								</g>
							</g>
						</g>
					</g>
					<g>
						<g>
							<g>
								<g>
									<path style="fill:#21111D;" d="M895.148,1313.513l-52.37-43.545c-9.244-7.686-10.512-21.461-2.825-30.705l26.402-31.753
										l3.199,2.66l-26.402,31.753c-6.22,7.481-5.195,18.626,2.286,24.847l52.37,43.545L895.148,1313.513z"/>
								</g>
							</g>
						</g>
					</g>
					<g style="opacity:0.5;">
						<g>
							<g>
								<g>
									<path style="fill:#CAFBFF;" d="M1242.09,1212.884c-91.737,114.584-270.101,117.061-363.881-8.322
										c-49.904-66.721-58.592-156.354-22.234-231.322c67.811-139.822,240.634-171.633,352.373-80.149
										C1303.369,970.886,1318.84,1117.02,1242.09,1212.884z"/>
								</g>
							</g>
						</g>
					</g>
					<g style="opacity:0.5;">
						<g>
							<g>
								<g>
									<path style="fill:#F3FFFE;" d="M1214.184,1139.053c-22.559,2.076-44.371-34.535-48.717-81.771
										c-4.346-47.237,10.418-87.212,32.978-89.288c22.559-2.076,44.371,34.535,48.717,81.771
										C1251.509,1097.001,1236.744,1136.977,1214.184,1139.053z"/>
								</g>
							</g>
						</g>
					</g>
					<g>
						<g>
							<g>
								<g>
									
										<rect x="440.145" y="1438.362" transform="matrix(0.6925 -0.7214 0.7214 0.6925 -830.4059 932.5236)" style="fill:#21111D;" width="477.259" height="4.159"/>
								</g>
							</g>
						</g>
					</g>
					<g>
						<g>
							<g>
								<g>
									<path style="fill:#21111D;" d="M1044.339,872.992l-0.904-4.06c0.509-0.113,51.434-11.08,95.735,12.079l-1.928,3.686
										C1094.319,862.26,1044.833,872.884,1044.339,872.992z"/>
								</g>
							</g>
						</g>
					</g>
					<g>
						<g>
							<g>
								<g>
									<path style="fill:#21111D;" d="M1037.998,900.986l-0.904-4.06c0.509-0.113,51.434-11.08,95.735,12.079l-1.929,3.686
										C1087.978,890.253,1038.493,900.877,1037.998,900.986z"/>
								</g>
							</g>
						</g>
					</g>
					<g>
						<g>
							<g>
								<path style="fill:#4CB7D8;" d="M887.689,923.85c80.743-97.108,224.919-110.374,322.027-29.63
									c97.108,80.744,110.374,224.92,29.63,322.028c-80.743,97.108-224.919,110.374-322.027,29.63
									C820.211,1165.134,806.945,1020.957,887.689,923.85z M894.069,1273.839c112.551,93.584,279.656,78.209,373.239-34.342
									c93.584-112.55,78.209-279.655-34.342-373.239c-112.551-93.584-279.656-78.208-373.239,34.342
									C766.143,1013.15,781.518,1180.255,894.069,1273.839z"/>
							</g>
						</g>
					</g>
					<g>
						<g>
							<g>
								<g>
									<path style="fill:#21111D;" d="M892.739,1275.439c-113.252-94.167-128.779-262.917-34.612-376.169
										c94.169-113.254,262.917-128.78,376.169-34.613c53.094,44.147,86.681,106.22,94.577,174.79l-4.131,0.475
										c-7.774-67.499-40.841-128.608-93.106-172.066c-111.488-92.701-277.609-77.415-370.31,34.073
										c-92.701,111.489-77.416,277.609,34.072,370.31c51.749,43.028,117.224,64.429,184.362,60.262l0.258,4.151
										C1011.817,1340.887,945.306,1319.147,892.739,1275.439z"/>
								</g>
							</g>
						</g>
					</g>
				</g>
			</g>
			<g>
				<path d="M527.144,1481.021c-0.215-0.199-0.377-0.46-0.458-0.765c-0.226-0.856,0.285-1.733,1.141-1.959
					c0.176-0.047,17.895-4.851,43.016-21.568c23.189-15.432,57.609-44.463,89.893-95.125c0.476-0.747,1.467-0.967,2.214-0.491
					c0.748,0.475,0.966,1.467,0.491,2.214c-32.636,51.216-67.485,80.569-90.973,96.173c-25.53,16.962-43.087,21.704-43.822,21.898
					C528.093,1481.542,527.533,1481.382,527.144,1481.021z"/>
			</g>
			<g>
				<path style="fill:#FE9F73;" d="M705.795,1332.867l-82.557,48.408l-161.083-50.762c0,0,110.062-71.685,134.425-73.261
					c24.363-1.577,72.849-0.94,97.219-6.938c24.37-5.997,51.867,10.78,80.895,19.392c29.028,8.612,55.63-14.93,62.011,7.399
					c6.38,22.329-23.284,62.202-62.009,60.226C735.971,1335.354,705.795,1332.867,705.795,1332.867z"/>
			</g>
			<g>
				<path d="M456.051,1334.69c-0.007-0.011-0.015-0.022-0.015-0.022c-0.406-0.633-0.225-1.459,0.395-1.858
					c0.47-0.302,47.476-30.441,90.981-55.474c38.348-22.067,50.048-22.186,69.433-22.384c2.988-0.03,6.077-0.062,9.498-0.178
					c13.058-0.444,27.672-2.169,41.804-3.838c13.139-1.551,25.549-3.016,34.974-3.202c19.364-0.381,64.23,18.789,66.13,19.606
					c0.678,0.292,0.992,1.077,0.701,1.755c-0.291,0.678-1.077,0.992-1.755,0.7c-0.46-0.198-46.235-19.759-65.024-19.389
					c-9.293,0.183-21.641,1.641-34.713,3.184c-14.187,1.675-28.857,3.407-42.027,3.854c-3.452,0.117-6.558,0.149-9.562,0.18
					c-18.948,0.193-30.385,0.31-68.127,22.027c-43.449,25.002-90.401,55.107-90.87,55.407
					C457.266,1335.451,456.458,1335.284,456.051,1334.69z"/>
			</g>
			<g>
				<path d="M704.802,1333.545c-0.166-0.242-0.253-0.54-0.229-0.855c0.056-0.736,0.697-1.287,1.433-1.231l28.436,2.161
					c54.372,8.403,74.986-7.649,75.188-7.812c17.295-13.371,23.376-26.364,25.437-34.912c2.224-9.227,0.372-15.407,0.353-15.469
					c-0.218-0.704,0.175-1.453,0.879-1.672c0.703-0.219,1.45,0.17,1.672,0.873c0.086,0.273,2.078,6.807-0.26,16.7
					c-2.13,9.013-8.443,22.675-26.421,36.574c-0.826,0.675-21.521,16.961-77.204,8.367l-28.281-2.146
					C705.384,1334.091,705.024,1333.868,704.802,1333.545z"/>
			</g>
			<g>
				<path style="fill:#F07162;" d="M830.22,1284.125c-0.107-5.922-0.784-11.42-1.745-16.364
					c-10.238-2.905-27.524,5.989-46.555,3.467l0.002,0.008c0,0,1.031,9.482,5.86,16.539c4.829,7.057,9.135,7.615,9.135,7.615l0,0
					l24.821-2.559C826.556,1292.336,830.3,1288.519,830.22,1284.125z"/>
			</g>
			<g>
				<g>
					<g>
						<path d="M474.136,1373.046c-0.237-0.346-0.29-0.803-0.1-1.21c6.373-13.688,26.929-26.18,27.801-26.705
							c0.58-0.349,1.328-0.16,1.682,0.418c0.349,0.579,0.163,1.333-0.417,1.682c-0.207,0.125-20.788,12.633-26.843,25.64
							c-0.286,0.614-1.015,0.879-1.628,0.593C474.423,1373.367,474.256,1373.221,474.136,1373.046z"/>
					</g>
				</g>
				<g>
					<g>
						<path d="M476.339,1389.825c-0.185-0.27-0.262-0.613-0.185-0.958c3.27-14.741,20.647-31.373,21.385-32.074
							c0.491-0.466,1.267-0.446,1.732,0.045c0.469,0.49,0.446,1.266-0.044,1.732c-0.175,0.166-17.572,16.82-20.679,30.828
							c-0.147,0.661-0.801,1.078-1.462,0.931C476.768,1390.26,476.508,1390.073,476.339,1389.825z"/>
					</g>
				</g>
			</g>
			<g>
				<path d="M714.992,1287.393c-0.144-0.21-0.229-0.464-0.232-0.737c-0.158-13.099-5.685-27.786-5.741-27.933
					c-0.262-0.69,0.084-1.462,0.774-1.724c0.69-0.262,1.463,0.086,1.724,0.774c0.235,0.618,5.751,15.281,5.915,28.85
					c0.009,0.738-0.582,1.343-1.32,1.352C715.648,1287.982,715.236,1287.75,714.992,1287.393z"/>
			</g>
			<g>
				<path d="M702.967,1285.908c-0.144-0.21-0.229-0.464-0.233-0.737c-0.158-13.099-5.685-27.786-5.741-27.933
					c-0.262-0.69,0.084-1.462,0.775-1.724c0.689-0.262,1.46,0.088,1.724,0.774c0.235,0.618,5.751,15.282,5.914,28.85
					c0.009,0.738-0.582,1.344-1.32,1.352C703.622,1286.496,703.211,1286.264,702.967,1285.908z"/>
			</g>
			<g>
				<g>
					<path style="fill:#FE9F73;" d="M854.399,1521.283c-10.514,19.608-30.46,28.656-42.905,21.919l-128.607-67.67
						c-15.36-8.08-22.027-27.786-14.102-45.034c8.683-18.901,30.104-27.138,46.664-18.424l125.765,66.175
						c15.173,7.984,21.449,26.677,13.73,41.988C854.769,1520.584,854.587,1520.933,854.399,1521.283z"/>
				</g>
				<g>
					<path style="fill:#FE9F73;" d="M806.262,1572.715c-10.167,19.786-30.266,28.885-34.401,26.821l-138.177-69.041
						c-15.528-7.757-22.566-27.295-14.948-44.674c8.347-19.044,29.645-27.699,46.387-19.332l133.059,69.409
						c3.294,1.73,7.541,5.774,9.146,9.131C810.108,1550.841,812.463,1560.646,806.262,1572.715z"/>
				</g>
				<g>
					<path style="fill:#FE9F73;" d="M744.82,1612.351c-7.894,15.777-21.913,23.587-36.817,16.874l-100.556-48.642
						c-12.395-5.995-18.156-21.408-12.264-35.252c6.456-15.172,23.286-22.238,36.65-15.772l109.515,54.733
						c1.886,0.942,3.416,2.473,4.328,4.373C747.77,1593.022,750.206,1601.588,744.82,1612.351z"/>
				</g>
				<g>
					<path style="fill:#FE9F73;" d="M874.888,1459.564c-8.681,16.189-20.483,24.251-28.761,21.602l-112.847-59.377
						c-12.681-6.672-18.186-22.941-11.643-37.182c7.169-15.606,24.855-22.407,38.529-15.211l104.422,54.943
						c11.761,6.189,16.936,20.428,11.584,32.593C875.79,1457.799,875.364,1458.677,874.888,1459.564z"/>
				</g>
			</g>
			<g>
				<g>
					<g>
						<path d="M617.644,1486.997c-0.486-0.451-0.658-1.177-0.377-1.819c4.39-10.016,12.568-17.808,22.437-21.378
							c8.837-3.197,18.118-2.751,26.135,1.256l105.362,55.345c0.784,0.411,1.085,1.381,0.674,2.165
							c-0.412,0.784-1.381,1.086-2.165,0.674l-105.334-55.33c-7.194-3.595-15.58-3.989-23.582-1.094
							c-9.047,3.273-16.552,10.435-20.591,19.65c-0.355,0.811-1.301,1.18-2.112,0.825
							C617.922,1487.216,617.772,1487.116,617.644,1486.997z"/>
					</g>
					<g>
						<path d="M750.966,1590.817c-0.508-0.472-0.668-1.24-0.342-1.891c0.396-0.792,1.359-1.113,2.151-0.718l15.999,7.994
							c8.928,4.291,26.262-5.148,36.062-24.219c0.405-0.788,1.371-1.098,2.159-0.693c0.788,0.405,1.098,1.371,0.693,2.159
							c-10.932,21.273-30.025,30.583-40.325,25.633l-16.022-8.005C751.201,1591.006,751.075,1590.918,750.966,1590.817z"/>
					</g>
				</g>
				<g>
					<g>
						<path d="M594.093,1546.505c-0.481-0.447-0.656-1.164-0.384-1.803c3.43-8.06,9.919-14.38,17.803-17.337
							c7.073-2.653,14.538-2.387,21.021,0.75l109.533,54.742c0.791,0.396,1.113,1.359,0.717,2.151
							c-0.396,0.792-1.359,1.113-2.151,0.717l-109.515-54.733c-5.667-2.742-12.236-2.967-18.479-0.625
							c-7.067,2.651-12.891,8.334-15.979,15.591c-0.346,0.815-1.288,1.194-2.103,0.847
							C594.381,1546.731,594.226,1546.629,594.093,1546.505z"/>
					</g>
				</g>
				<g>
					<g>
						<path d="M726.517,1418.948c-9.151-8.502-12.033-22.614-6.338-35.01c0.37-0.805,1.322-1.157,2.126-0.788
							c0.806,0.37,1.157,1.322,0.788,2.126c-6.087,13.25-1.285,28.665,10.933,35.093l67.215,35.366
							c0.783,0.413,1.085,1.382,0.672,2.166c-0.412,0.784-1.382,1.084-2.166,0.672l-67.214-35.366
							C730.304,1422.035,728.292,1420.596,726.517,1418.948z"/>
					</g>
					<g>
						<path d="M845.036,1482.341c-0.441-0.41-0.632-1.052-0.437-1.664c0.27-0.843,1.173-1.308,2.016-1.038
							c7.884,2.523,18.929-6.043,26.86-20.833c0.418-0.78,1.39-1.074,2.171-0.655c0.78,0.418,1.074,1.39,0.655,2.171
							c-8.81,16.431-21.133,25.421-30.663,22.372C845.406,1482.619,845.203,1482.496,845.036,1482.341z"/>
					</g>
				</g>
			</g>
			<g>
				<path d="M664.48,1450.039c-0.26-0.242-0.442-0.571-0.496-0.95c-2.178-15.443,9.246-31.779,21.08-38.058
					c10.411-5.523,23.541-4.37,31.132-0.376c6.486,3.413,33.069,17.73,33.337,17.875c0.779,0.419,1.071,1.392,0.651,2.172
					c-0.42,0.78-1.392,1.071-2.172,0.651c-0.267-0.144-26.837-14.454-33.31-17.86c-6.678-3.514-18.808-4.578-28.135,0.371
					c-9.122,4.84-21.599,19.241-19.407,34.778c0.124,0.877-0.487,1.688-1.364,1.812
					C665.298,1450.523,664.821,1450.357,664.48,1450.039z"/>
			</g>
			<g>
				<path d="M810.402,1544.376c-0.506-0.47-0.667-1.233-0.346-1.884c0.392-0.794,1.353-1.121,2.147-0.729
					c13.195,6.507,29.203-5.021,36.743-14.357c0.556-0.689,1.566-0.797,2.255-0.24c0.692,0.556,0.797,1.566,0.24,2.255
					c-8.188,10.138-25.773,22.557-40.656,15.218C810.642,1544.569,810.513,1544.48,810.402,1544.376z"/>
			</g>
			<path style="fill:#F07162;" d="M753.904,1422.427l-23.529-13.3c-4.701-2.612-6.801-15.328-1.897-24.155
				c4.904-8.826,16.81-13.762,21.511-11.151l23.528,13.3c3.44,1.911,2.908,11.737-1.778,20.38
				C766.806,1416.6,757.525,1424.439,753.904,1422.427z"/>
			<path style="fill:#F07162;" d="M699.182,1468.112l-21.656-10.265c-4.701-2.612-6.076-16.633-0.448-26.764
				c5.628-10.131,18.26-16.371,22.961-13.76l20.648,11.702c5.389,2.316,5.139,14.505-0.253,24.418
				C714.758,1463.879,705.416,1469.901,699.182,1468.112z"/>
			<path style="fill:#F07162;" d="M649.451,1526.703l-23.514-13.326c-4.701-2.612-6.076-16.633-0.448-26.764
				c5.628-10.131,18.26-16.371,22.961-13.76l23.514,13.326c3.44,1.911,2.273,12.88-3.119,22.794
				C663.169,1519.409,653.072,1528.715,649.451,1526.703z"/>
			<path style="fill:#F07162;" d="M621.692,1580.459l-20.38-11.001c-4.073-2.154-5.499-14.142-0.856-22.921
				c4.643-8.779,15.354-14.348,19.428-12.193l20.38,11.002c2.981,1.577,2.175,10.995-2.27,19.583
				C633.315,1573.968,624.83,1582.119,621.692,1580.459z"/>
		</g>
	</g>
	<g>
		<rect x="222.208" y="1819.309" style="fill:#9FD6E2;" width="2617.78" height="6.489"/>
	</g>
</g>
</svg>
