<svg width="600" height="400" viewBox="0 0 600 400" fill="none" xmlns="http://www.w3.org/2000/svg">
<path d="M553.346 398.948C633.392 269.889 596.489 117.185 546.37 76.8728C473.644 18.377 422.245 67.6725 346.887 67.5776C265.865 67.4756 271.194 -9.04735 157.917 0.890423C47.5819 10.5701 6.85969 119.436 1.09756 219.085C-4.77457 320.638 14.2903 375.717 25.7012 398.948H553.346Z" fill="#D3F0EF"/>
<path d="M121.747 172.447C121.747 172.447 107.756 146.559 74.1904 153.272C74.1904 153.272 96.7867 190.776 121.747 172.447Z" fill="#3F9896"/>
<path d="M143.595 179.281C143.595 179.281 139.427 127.388 82.9548 109.386C82.9548 109.386 92.5948 186.532 143.595 179.281Z" fill="#7FC6A6"/>
<path d="M314.745 153.286C314.745 153.286 318.052 133.264 340.61 128.557C340.61 128.557 334.354 158.182 314.745 153.286Z" fill="#3F9896"/>
<path d="M302.441 163.403C302.441 163.403 294.038 129.623 325.767 103.26C325.767 103.26 336.091 154.395 302.441 163.403Z" fill="#7FC6A6"/>
<path d="M440.9 398.886H115.133C106.846 398.886 100.128 391.368 100.128 382.094V162.434C100.128 153.159 106.846 145.641 115.133 145.641H440.9C449.187 145.641 455.904 153.159 455.904 162.434V382.094C455.904 391.368 449.187 398.886 440.9 398.886Z" fill="#5B2750"/>
<path d="M106.751 93.8112C100.789 93.4506 86.8132 92.834 74.6681 94.024C69.6435 94.5165 65.2913 90.0388 65.3882 84.3949C65.4279 82.085 66.1605 79.3953 68.0673 76.3437C75.4096 64.5937 88.263 75.7438 88.1567 81.6953C88.1567 81.6953 90.723 72.7251 98.6002 74.2656C106.477 75.8062 103.731 88.8483 103.731 88.8483C103.731 88.8483 106.269 88.2384 108.034 89.5776C109.77 90.8944 108.845 93.9381 106.751 93.8112Z" fill="white"/>
<path d="M505.006 164.741C510.968 164.38 524.944 163.763 537.089 164.953C542.113 165.446 546.465 160.968 546.369 155.324C546.329 153.014 545.596 150.325 543.689 147.273C536.347 135.523 523.494 146.673 523.6 152.625C523.6 152.625 521.034 143.654 513.157 145.195C505.28 146.736 508.026 159.778 508.026 159.778C508.026 159.778 505.488 159.168 503.723 160.507C501.987 161.824 502.912 164.867 505.006 164.741Z" fill="white"/>
<path d="M163.688 42.2675C172.408 41.7528 202.289 40.3423 222.722 43.7322C225.373 44.1719 227.061 40.617 225.227 38.4302C224.155 37.1512 222.326 36.1096 219.249 35.8686C219.249 35.8686 220.309 14.5196 205.899 13.1054C189.374 11.4836 189.173 32.4578 189.173 32.4578C189.173 32.4578 181.662 24.4775 176.245 34.5951C176.245 34.5951 166.883 28.539 162.16 39.7245C161.645 40.9447 162.485 42.3386 163.688 42.2675Z" fill="white"/>
<path d="M494.153 111.659C488.33 111.315 468.374 110.373 454.727 112.637C452.957 112.931 451.83 110.556 453.055 109.096C453.771 108.242 454.992 107.546 457.047 107.385C457.047 107.385 456.34 93.1273 465.963 92.1828C477 91.0995 477.133 105.107 477.133 105.107C477.133 105.107 482.15 99.7777 485.768 106.535C485.768 106.535 492.02 102.491 495.175 109.961C495.518 110.775 494.957 111.706 494.153 111.659Z" fill="white"/>
<path d="M442.079 169.454V375.204C442.079 379.602 439.298 383.171 435.868 383.171H121.069C117.139 383.171 113.956 379.602 113.956 375.204V169.454C113.956 165.055 117.139 161.489 121.069 161.489H435.869C437.859 161.489 439.631 162.691 440.765 164.56C441.588 165.91 442.079 167.608 442.079 169.454Z" fill="#DCF4FF"/>
<path d="M442.079 169.454V375.204C442.079 379.602 439.298 383.171 435.868 383.171H123.452V383.09H123.485V161.632H123.452V161.489H435.869C437.859 161.489 439.631 162.691 440.765 164.56C441.588 165.91 442.079 167.608 442.079 169.454Z" fill="#DCF4FF"/>
<path d="M330.504 246.935V191.231L202.798 191.231V246.935L330.504 246.935Z" fill="#D0F6FC"/>
<path d="M442.079 175.07H366.039V243.365H442.079V175.07Z" fill="#D0F6FC"/>
<path d="M277.16 370.011V292.525H204.105V370.011H277.16Z" fill="#D0F6FC"/>
<path d="M165.632 311.006V233.521H126.405L126.405 311.006H165.632Z" fill="#D0F6FC"/>
<path d="M162.911 161.489H123.685V202.687H162.911V161.489Z" fill="#D0F6FC"/>
<path d="M350.769 326.914V290.827H316.914V326.914H350.769Z" fill="#D0F6FC"/>
<path d="M401.165 326.914V290.827H367.31V326.914H401.165Z" fill="#D0F6FC"/>
<path d="M442.079 290.826H417.706V326.914H442.079V290.826Z" fill="#D0F6FC"/>
<path d="M114.33 172.079H113.579V370.011H114.33V172.079Z" fill="#1D1D1B"/>
<path d="M424.218 145.221H135.871V146.061H424.218V145.221Z" fill="#1D1D1B"/>
<path d="M194.001 161.489H172.641V383.171H194.001V161.489Z" fill="white"/>
<path d="M442.078 283.634V259.728L183.145 259.728V283.634L442.078 283.634Z" fill="white"/>
<path d="M285.939 382.684H307.299V259.728H285.939V382.684Z" fill="white"/>
<path d="M442.078 336.894H303.025V351.835H442.078V336.894Z" fill="white"/>
<path d="M187.103 208.044H114.295V222.985H187.103V208.044Z" fill="white"/>
<path d="M187.103 339.024H114.295V353.965H187.103V339.024Z" fill="white"/>
<path d="M355.691 259.654V161.489H342.341V259.654H355.691Z" fill="white"/>
<path d="M297.823 267.781H292.614H189.2V204.777H181.19V276.746H182.52H189.2H292.614V320.377H300.624V267.781H297.823Z" fill="#7FC6A6"/>
<path d="M171.109 196.61L182.791 222.56L195.053 196.948C198.683 187.552 192.856 176.834 183.718 176.409C183.582 176.402 183.447 176.398 183.31 176.396C183.174 176.394 183.038 176.395 182.903 176.397C173.759 176.565 167.691 187.115 171.109 196.61ZM183.219 184.531C186.564 184.578 189.242 187.651 189.2 191.395C189.157 195.139 186.411 198.136 183.066 198.088C179.721 198.041 177.043 194.968 177.085 191.224C177.128 187.481 179.874 184.484 183.219 184.531Z" fill="#ED2B47"/>
<path d="M274.214 332.618L296.619 325.943V284.556L274.214 332.618Z" fill="#ED2B47"/>
<path d="M319.025 332.618L296.619 325.943V284.556L319.025 332.618Z" fill="#CE193C"/>
<path d="M407.472 326.985V314.034H397.151V326.985H407.472Z" fill="#D0F6FC"/>
<path d="M402.155 380.19V367.239H391.834V380.19H402.155Z" fill="#D0F6FC"/>
<path d="M436.246 336.436V323.485H425.925V336.436H436.246Z" fill="#D0F6FC"/>
<path d="M515.375 355.338V342.387H505.054V355.338H515.375Z" fill="#D0F6FC"/>
<path d="M375.257 352.888V339.936H364.936V352.888H375.257Z" fill="#D0F6FC"/>
<path d="M454.699 342.037V304.933H444.378V342.037H454.699Z" fill="#D0F6FC"/>
<path d="M454.699 354.988V342.037H390.583V354.988H454.699Z" fill="#D0F6FC"/>
<path d="M477.843 367.239V330.135H467.522V367.239H477.843Z" fill="#D0F6FC"/>
<path d="M477.844 380.19V367.239H413.727V380.19H477.844Z" fill="#D0F6FC"/>
<path d="M504.661 373.793C504.661 373.793 461.127 381.737 460.606 381.385C460.085 381.033 454.519 353.804 454.519 353.804C454.519 353.804 490.52 346.678 491.103 346.68C491.686 346.681 499.494 353.713 499.598 354.181C499.701 354.648 504.661 373.793 504.661 373.793Z" fill="#3A2645"/>
<path d="M370.097 385.048C369.053 385.162 320.423 385.282 320.423 385.282L322.174 365.413C322.174 365.413 329.51 353.074 333.37 353.312C337.231 353.549 360.203 349.455 364.158 352.544C368.113 355.632 371.667 353.191 373.527 360.555C375.386 367.918 376.849 368.747 375.375 373.176C373.901 377.606 370.097 385.048 370.097 385.048Z" fill="#3A2645"/>
<path d="M482.677 398.647C492.582 398.647 500.613 389.657 500.613 378.567C500.613 367.478 492.582 358.487 482.677 358.487C472.771 358.487 464.741 367.478 464.741 378.567C464.741 389.657 472.771 398.647 482.677 398.647Z" fill="#1A1A1A"/>
<path d="M495.166 378.648C495.211 370.932 489.661 364.636 482.769 364.585C475.877 364.534 470.253 370.748 470.207 378.464C470.162 386.18 475.712 392.476 482.604 392.527C489.496 392.578 495.12 386.364 495.166 378.648Z" fill="#9E9DA2"/>
<g opacity="0.5">
<path d="M489.665 366.992C490.859 369.141 491.548 371.678 491.541 374.396C491.522 382.112 485.919 388.35 479.027 388.328C476.45 388.32 474.058 387.437 472.074 385.933C474.269 389.886 478.177 392.524 482.641 392.538C489.533 392.56 495.136 386.323 495.156 378.607C495.168 373.776 492.988 369.511 489.665 366.992Z" fill="#9E9DA2"/>
</g>
<path d="M491.022 378.594C491.009 383.754 487.262 387.925 482.653 387.911C478.044 387.896 474.318 383.701 474.331 378.541C474.344 373.381 478.091 369.209 482.7 369.224C487.309 369.239 491.035 373.434 491.022 378.594Z" fill="#D8D9DD"/>
<g opacity="0.3">
<path d="M487.306 370.794C488.179 372.275 488.686 374.05 488.682 375.958C488.668 381.119 484.921 385.29 480.312 385.275C478.608 385.27 477.025 384.692 475.706 383.706C477.195 386.231 479.748 387.902 482.653 387.911C487.262 387.925 491.009 383.754 491.022 378.594C491.031 375.342 489.553 372.474 487.306 370.794Z" fill="#D8D9DD"/>
</g>
<path d="M362.543 378.242C362.591 367.153 354.599 358.119 344.693 358.066C334.787 358.013 326.719 366.96 326.671 378.05C326.624 389.14 334.615 398.173 344.521 398.226C354.427 398.279 362.496 389.332 362.543 378.242Z" fill="#1A1A1A"/>
<path d="M357.051 378.155C357.072 370.439 351.502 364.165 344.61 364.141C337.718 364.117 332.113 370.353 332.092 378.069C332.071 385.785 337.64 392.059 344.533 392.083C351.425 392.107 357.029 385.871 357.051 378.155Z" fill="#9E9DA2"/>
<g opacity="0.5">
<path d="M351.572 366.554C352.766 368.703 353.455 371.241 353.448 373.958C353.429 381.674 347.826 387.912 340.934 387.89C338.357 387.882 335.965 386.999 333.98 385.495C336.176 389.447 340.084 392.086 344.548 392.1C351.44 392.122 357.043 385.885 357.063 378.169C357.075 373.338 354.895 369.073 351.572 366.554Z" fill="#9E9DA2"/>
</g>
<path d="M352.929 378.156C352.916 383.316 349.169 387.488 344.56 387.473C339.95 387.458 336.224 383.263 336.237 378.103C336.251 372.943 339.998 368.772 344.607 368.786C349.216 368.801 352.942 372.996 352.929 378.156Z" fill="#D8D9DD"/>
<g opacity="0.3">
<path d="M349.212 370.356C350.086 371.837 350.593 373.612 350.588 375.52C350.575 380.681 346.828 384.852 342.219 384.837C340.514 384.832 338.932 384.254 337.613 383.268C339.102 385.793 341.655 387.464 344.56 387.473C349.169 387.488 352.916 383.316 352.929 378.156C352.937 374.904 351.46 372.036 349.212 370.356Z" fill="#D8D9DD"/>
</g>
<path d="M303.454 358.889C304.998 347.703 309.906 345.368 324.415 342.169C340.424 338.638 360.767 327.024 360.767 327.024C360.767 327.024 395.459 308.137 403.951 305.984C412.444 303.831 433.312 304.52 450.842 304.732C468.373 304.943 478.655 310.426 487.54 318.239C496.424 326.053 511.853 332.019 511.853 332.019L514.657 332.588C517.541 333.174 519.634 335.989 519.626 339.269L519.556 367.038C519.548 370.182 517.649 372.926 514.93 373.721L504.783 376.686C503.957 376.843 503.191 376.183 503.102 375.25C502.021 363.886 493.268 355.225 482.803 355.206C471.677 355.185 462.526 365.388 462.501 377.841C462.499 379.256 462.612 380.641 462.831 381.985C463.058 383.372 462.103 384.648 460.843 384.644L367.528 384.348C365.715 384.342 364.311 382.555 364.556 380.544C364.674 379.577 364.738 378.589 364.743 377.587C364.807 365.287 355.946 355.062 344.959 354.774C333.569 354.475 324.236 364.701 324.204 377.388C324.202 378.228 324.241 379.058 324.318 379.874C324.538 382.186 322.935 384.207 320.857 384.2L307.439 384.158C304.999 384.15 303.027 381.93 303.034 379.2L303.071 364.654C303.075 362.724 303.19 360.796 303.454 358.889Z" fill="#FFB357"/>
<path d="M519.027 342.552L507.975 342.517C507.028 342.514 506.384 343.591 506.748 344.569L507.981 347.889C509.157 351.053 511.914 353.118 514.976 353.128L519 353.141C519.787 353.143 520.428 352.431 520.43 351.549L520.449 344.153C520.451 343.271 519.814 342.555 519.027 342.552Z" fill="#CF283C"/>
<path d="M321.063 347.063C314.974 348.087 307.949 354.515 307.949 354.515C306.268 356.525 307.644 359.8 310.099 359.635L321.968 358.833C324.433 358.667 326.54 356.786 327.234 354.134C328.399 349.677 327.426 345.993 321.063 347.063Z" fill="#F9E2C5"/>
<path d="M519.489 368.072C520.25 368.053 520.787 368.911 520.504 369.701C519.705 371.938 517.998 373.692 515.82 374.328L504.45 377.651C503.524 377.826 502.666 377.087 502.567 376.042C502.362 373.889 501.908 371.824 501.242 369.876C501.016 369.217 501.447 368.507 502.078 368.492L519.489 368.072Z" fill="#F2932C"/>
<path d="M324.121 372.686C324.984 372.665 325.648 373.514 325.535 374.472C325.409 375.537 325.343 376.622 325.34 377.724C325.338 378.656 325.381 379.577 325.467 380.482C325.711 383.048 323.932 385.29 321.626 385.282L306.737 385.235C304.03 385.226 301.842 382.763 301.849 379.734L301.86 375.422C301.863 374.199 302.737 373.202 303.83 373.176L324.121 372.686Z" fill="#F2932C"/>
<g opacity="0.5">
<path d="M360.39 333.658L360.501 334.067C360.557 334.275 366.136 355.111 366.359 375.046L366.365 375.573L421.179 374.551V374.554L421.664 374.542L422.118 374.533V374.53L461.458 373.523L461.495 373.055C461.499 373 461.97 367.544 465.678 362.387C470.583 355.566 478.943 352.343 489.852 353.067L490.254 353.093L494.055 333.404L493.893 333.204C493.306 332.48 479.399 315.414 468.697 311.644C458.073 307.901 423.483 308.631 421.822 308.668C421.199 308.631 406.744 307.874 393.776 314.545C380.679 321.284 360.923 333.333 360.725 333.454L360.39 333.658ZM422.121 373.479L422.282 309.71C426.509 309.634 458.557 309.173 468.414 312.646C478.267 316.118 491.425 331.765 493.035 333.712L489.505 351.993C475.558 351.184 468.438 356.849 464.914 361.772C461.645 366.341 460.804 371.016 460.611 372.494L422.121 373.479ZM361.508 334.174C364.161 332.562 382.035 321.743 394.169 315.501C405.865 309.483 418.808 309.609 421.343 309.699L421.182 373.5L367.291 374.505C367 356.134 362.286 337.182 361.508 334.174Z" fill="#FEB546"/>
</g>
<path d="M362.262 379.027C362.268 377.889 362.196 376.77 362.052 375.674C361.878 374.358 362.789 373.168 364.019 373.139L464.549 370.802C465.646 370.776 466.434 371.91 466.132 373.049C465.605 375.037 465.32 377.131 465.316 379.292C465.313 380.724 465.432 382.126 465.66 383.487C465.9 384.908 464.905 386.22 463.568 386.216L365.199 385.908C363.269 385.902 361.815 384.053 362.072 381.987C362.192 381.018 362.257 380.03 362.262 379.027Z" fill="#F2932C"/>
<path d="M471.983 341.708L484.283 341.747C484.517 341.748 484.708 341.536 484.708 341.274L484.712 339.849C484.712 339.586 484.523 339.373 484.289 339.373L471.989 339.333C471.755 339.333 471.564 339.545 471.564 339.807L471.56 341.232C471.56 341.494 471.749 341.708 471.983 341.708Z" fill="#1A1A1A"/>
<path d="M405.222 342.684L417.521 342.723C417.756 342.724 417.946 342.512 417.947 342.249L417.95 340.825C417.951 340.562 417.762 340.349 417.527 340.348L405.228 340.309C404.993 340.309 404.803 340.521 404.802 340.783L404.799 342.208C404.798 342.47 404.988 342.683 405.222 342.684Z" fill="#1A1A1A"/>
<path d="M482.407 335.702L428.767 336.099C428.767 336.099 425.485 335.99 425.046 332.531C424.608 329.072 424.684 314.265 424.684 314.265C424.684 314.265 425.081 311.293 427.625 311.263C429.171 311.244 442.133 310.249 454.733 312.007C465.011 313.441 474.51 318.727 481.7 326.823L485.497 331.098C485.497 331.098 488.053 335.66 482.407 335.702Z" fill="#A4E4EA"/>
<path d="M418.708 316.124L418.669 331.65C418.664 333.667 417.277 335.319 415.528 335.392L373.376 337.156C372.408 337.196 371.462 336.704 370.91 335.787C370.157 334.537 370.074 332.484 373.858 329.744C380.438 324.978 397.173 314.679 403.357 313.697C407.294 313.071 412.442 312.811 415.665 312.704C417.335 312.649 418.713 314.198 418.708 316.124Z" fill="#A4E4EA"/>
<g opacity="0.3">
<path d="M459.439 335.872L448.826 335.951L440.979 310.993C444.406 311.059 448.213 311.251 452.065 311.675L459.439 335.872Z" fill="white"/>
</g>
<g opacity="0.3">
<path d="M444.797 335.981L440.81 336.01L433.372 311.032C434.431 311.002 435.604 310.979 436.868 310.97L444.797 335.981Z" fill="white"/>
</g>
<g opacity="0.3">
<path d="M396.236 316.339C399.125 314.955 401.646 313.969 403.357 313.697C404.237 313.557 405.179 313.436 406.144 313.331L412.901 335.502L402.399 335.942L396.236 316.339Z" fill="white"/>
</g>
<g opacity="0.3">
<path d="M398.415 336.108L394.462 336.273L389.569 319.841C390.628 319.245 391.681 318.669 392.712 318.123L398.415 336.108Z" fill="white"/>
</g>
<path d="M456.105 370.626L374.216 372.533L374.229 373.257L456.119 371.35L456.105 370.626Z" fill="#1D1D1B"/>
<path d="M366.672 385.562L366.67 386.286L462.993 386.566L462.994 385.843L366.672 385.562Z" fill="#1D1D1B"/>
<path d="M303.371 373.386C303.688 363.419 304.284 356.136 304.29 356.064C305.09 349.948 311.423 344.833 319.688 343.646C327.872 342.471 340.562 337.228 345.638 335.028C350.379 332.973 371.128 321.895 371.337 321.783L371.059 321.131C370.85 321.242 350.123 332.309 345.405 334.353C340.351 336.543 327.719 341.764 319.606 342.929C315.505 343.518 311.677 345.103 308.825 347.393C305.862 349.773 304.072 352.742 303.649 355.978C303.641 356.07 303.043 363.372 302.725 373.36L303.371 373.386Z" fill="#1D1D1B"/>
<path d="M476.394 335.601L432.832 335.757L432.834 336.481L476.396 336.325L476.394 335.601Z" fill="#1D1D1B"/>
<path d="M414.094 335.57L378.939 336.786L378.959 337.509L414.114 336.293L414.094 335.57Z" fill="#1D1D1B"/>
<path d="M375.471 355.786L375.026 356.311L380.967 362.62L381.412 362.095L375.471 355.786Z" fill="#1D1D1B"/>
<path d="M371.448 355.089L371.003 355.614L376.944 361.923L377.389 361.398L371.448 355.089Z" fill="#1D1D1B"/>
<path d="M503.913 358.258L503.468 358.782L509.409 365.091L509.854 364.567L503.913 358.258Z" fill="#1D1D1B"/>
<path d="M499.89 357.561L499.444 358.086L505.386 364.395L505.831 363.87L499.89 357.561Z" fill="#1D1D1B"/>
<path d="M517.556 367.721L504.615 368.288L504.64 369.011L517.581 368.444L517.556 367.721Z" fill="#1D1D1B"/>
<path d="M516.238 353.679C517.422 353.679 518.232 353.498 518.256 353.492L518.124 352.784C517.833 352.852 510.967 354.372 508.276 347.739L507.687 348.038C509.654 352.886 513.763 353.679 516.238 353.679Z" fill="#1D1D1B"/>
<path d="M512.998 332.618L513.172 331.921C513.127 331.907 508.596 330.48 504.281 328.279C503.478 327.869 502.663 327.466 501.875 327.076C498.371 325.342 494.746 323.549 491.212 320.7L490.834 321.287C494.423 324.18 498.079 325.989 501.614 327.738C502.4 328.127 503.214 328.529 504.013 328.937C508.374 331.163 512.953 332.604 512.998 332.618Z" fill="#1D1D1B"/>
<path d="M306.638 385.64C306.836 385.64 307.039 385.626 307.248 385.596L307.167 384.878C304.266 385.29 302.73 382.151 302.452 381.517C302.066 380.637 301.829 375.272 302.715 374.05C303.47 373.236 314.308 372.925 324.117 373.048L324.124 372.324C324.072 372.323 318.897 372.26 313.665 372.369C302.939 372.591 302.43 373.294 302.213 373.594C301.062 375.182 301.446 380.868 301.871 381.836C302.164 382.502 303.699 385.639 306.638 385.64Z" fill="#1D1D1B"/>
<path d="M7.29489 340.366C22.1472 340.192 36.9393 340.003 37.5586 340.078C41.3284 340.535 45.2298 341.074 49.1307 341.784C49.1307 341.784 82.6352 346.405 85.2842 347.464C90.0034 349.352 105.334 346.227 105.334 346.227C105.334 346.227 135.57 303.705 134.892 298.356C134.215 293.006 108.119 284.412 104.419 281.01C102.065 278.847 76.0054 285.765 69.9436 279.971L70.1758 279.148L64.8887 275.135C64.2523 274.526 63.8884 274.177 63.8884 274.177L63.8621 274.356L59.5894 275.238C59.5894 275.238 48.4133 283.215 35.9464 285.843C35.6254 285.911 17.3733 283.474 0.587646 281.48C1.66623 304.459 4.14767 323.979 7.29489 340.366Z" fill="#FE9F73"/>
<path d="M156.765 273.737L149.579 267.05L149.107 266.611L141.922 259.924L68.3487 346.013C66.2794 348.434 66.477 352.31 68.7789 354.452L87.0662 371.47C89.3681 373.612 92.8097 373.122 94.5592 370.403L156.765 273.737Z" fill="#3A4A7C"/>
<path d="M156.035 276.326L139.649 261.078C138.294 259.816 138.109 257.564 139.235 256.047L145.83 247.171L167.124 266.987L160.53 275.863C159.403 277.38 157.391 277.587 156.035 276.326Z" fill="#4CB7D8"/>
<path d="M151.849 273.1L140.257 262.313C138.211 260.409 137.93 256.997 139.632 254.707L145.476 246.842L146.184 247.501L140.34 255.366C138.963 257.219 139.19 259.98 140.846 261.521L152.437 272.308L151.849 273.1Z" fill="#21111D"/>
<g opacity="0.5">
<path d="M228.64 248.173C208.335 276.557 168.857 277.171 148.099 246.111C137.054 229.584 135.131 207.38 143.178 188.81C158.187 154.174 196.44 146.294 221.172 168.956C242.204 188.227 245.628 224.426 228.64 248.173Z" fill="#CAFBFF"/>
</g>
<g opacity="0.5">
<path d="M222.464 229.884C217.471 230.398 212.643 221.329 211.681 209.628C210.719 197.927 213.987 188.025 218.98 187.51C223.973 186.996 228.801 196.065 229.763 207.766C230.725 219.467 227.457 229.37 222.464 229.884Z" fill="#F3FFFE"/>
</g>
<path d="M140.202 261.522L67.0493 346.809L67.7134 347.522L140.866 262.236L140.202 261.522Z" fill="#21111D"/>
<path d="M184.87 163.977L184.67 162.971C184.783 162.943 196.055 160.227 205.86 165.964L205.433 166.877C195.933 161.319 184.98 163.95 184.87 163.977Z" fill="#21111D"/>
<path d="M183.467 170.912L183.267 169.906C183.379 169.878 194.651 167.161 204.457 172.898L204.03 173.811C194.529 168.253 183.576 170.885 183.467 170.912Z" fill="#21111D"/>
<path d="M150.198 176.575C168.069 152.52 199.981 149.234 221.475 169.236C242.969 189.237 245.905 224.951 228.033 249.006C210.162 273.061 178.25 276.347 156.756 256.346C135.262 236.345 132.326 200.63 150.198 176.575ZM151.61 263.272C176.522 286.454 213.509 282.646 234.222 254.765C254.936 226.885 251.533 185.491 226.621 162.309C201.709 139.127 164.722 142.936 144.009 170.816C123.295 198.696 126.698 240.09 151.61 263.272Z" fill="#4CB7D8"/>
<path d="M151.315 263.669C126.248 240.342 122.812 198.541 143.654 170.487C164.498 142.432 201.848 138.586 226.915 161.912C238.667 172.848 246.101 188.225 247.849 205.21L246.935 205.328C245.214 188.607 237.895 173.47 226.327 162.705C201.65 139.742 164.881 143.528 144.362 171.145C123.844 198.763 127.227 239.913 151.904 262.876C163.358 273.535 177.85 278.836 192.71 277.804L192.768 278.832C177.672 279.881 162.951 274.496 151.315 263.669Z" fill="#21111D"/>
<path d="M70.395 314.594C70.3474 314.545 70.3115 314.48 70.2936 314.405C70.2436 314.193 70.3567 313.975 70.5461 313.919C70.5851 313.908 74.507 312.718 80.0673 308.577C85.1999 304.754 92.8184 297.563 99.9641 285.013C100.069 284.828 100.289 284.773 100.454 284.891C100.62 285.009 100.668 285.255 100.563 285.44C93.3392 298.127 85.6258 305.398 80.4269 309.263C74.7761 313.465 70.8901 314.639 70.7274 314.687C70.605 314.723 70.4811 314.684 70.395 314.594Z" fill="black"/>
<path d="M109.937 277.894L91.6643 289.886L56.0103 277.311C56.0103 277.311 80.3714 259.554 85.7638 259.163C91.1563 258.773 101.888 258.931 107.282 257.445C112.676 255.959 118.762 260.115 125.187 262.249C131.612 264.382 137.501 258.55 138.913 264.081C140.325 269.613 133.759 279.49 125.188 279C116.617 278.51 109.937 277.894 109.937 277.894Z" fill="#FE9F73"/>
<path d="M54.6592 278.346C54.6577 278.343 54.6559 278.34 54.6559 278.34C54.5661 278.184 54.6061 277.979 54.7433 277.88C54.8474 277.805 65.2516 270.34 74.881 264.139C83.3689 258.672 85.9586 258.643 90.2492 258.594C90.9106 258.586 91.5943 258.578 92.3515 258.55C95.2418 258.44 98.4764 258.012 101.604 257.599C104.513 257.215 107.259 256.852 109.346 256.806C113.632 256.711 123.562 261.46 123.983 261.662C124.133 261.735 124.202 261.929 124.138 262.097C124.073 262.265 123.899 262.343 123.749 262.271C123.648 262.222 113.516 257.376 109.357 257.468C107.3 257.513 104.567 257.874 101.674 258.256C98.5335 258.671 95.2865 259.1 92.3715 259.211C91.6074 259.24 90.9199 259.248 90.255 259.256C86.0611 259.303 83.5296 259.332 75.1758 264.712C65.5589 270.905 55.1665 278.363 55.0627 278.437C54.9282 278.534 54.7493 278.493 54.6592 278.346Z" fill="black"/>
<path d="M109.718 278.062C109.681 278.002 109.662 277.928 109.667 277.85C109.679 277.668 109.821 277.532 109.984 277.546L116.278 278.081C128.313 280.162 132.875 276.186 132.92 276.146C136.748 272.834 138.094 269.615 138.55 267.498C139.043 265.212 138.633 263.681 138.628 263.666C138.58 263.491 138.667 263.306 138.823 263.251C138.979 263.197 139.144 263.294 139.193 263.468C139.212 263.535 139.653 265.154 139.136 267.605C138.664 269.837 137.267 273.221 133.288 276.664C133.105 276.832 128.524 280.866 116.199 278.737L109.94 278.205C109.846 278.198 109.767 278.142 109.718 278.062Z" fill="black"/>
<path d="M137.478 265.82C137.454 264.353 137.304 262.991 137.091 261.767C134.825 261.047 130.999 263.25 126.787 262.626L126.787 262.627C126.787 262.627 127.016 264.976 128.084 266.724C129.153 268.473 130.106 268.611 130.106 268.611L135.6 267.977C136.667 267.854 137.495 266.909 137.478 265.82Z" fill="#F07162"/>
<path d="M58.6621 287.847C58.6097 287.762 58.598 287.648 58.64 287.547C60.0506 284.157 64.6004 281.062 64.7935 280.932C64.9218 280.846 65.0874 280.893 65.1658 281.036C65.243 281.179 65.2018 281.366 65.0734 281.452C65.0276 281.483 60.4723 284.582 59.132 287.804C59.0687 287.956 58.9074 288.022 58.7717 287.951C58.7257 287.927 58.6887 287.891 58.6621 287.847Z" fill="black"/>
<path d="M59.1497 292.004C59.1088 291.937 59.0918 291.852 59.1088 291.766C59.8326 288.115 63.6788 283.995 63.8421 283.821C63.9508 283.706 64.1226 283.711 64.2255 283.832C64.3293 283.954 64.3242 284.146 64.2158 284.261C64.177 284.302 60.3264 288.428 59.6387 291.898C59.6061 292.062 59.4614 292.165 59.3151 292.128C59.2447 292.111 59.1871 292.065 59.1497 292.004Z" fill="black"/>
<path d="M111.973 266.63C111.941 266.578 111.922 266.515 111.922 266.447C111.887 263.202 110.663 259.564 110.651 259.528C110.593 259.357 110.67 259.166 110.822 259.101C110.975 259.036 111.146 259.122 111.204 259.293C111.256 259.446 112.477 263.078 112.513 266.439C112.515 266.622 112.384 266.772 112.221 266.774C112.118 266.776 112.027 266.718 111.973 266.63Z" fill="black"/>
<path d="M109.311 266.262C109.28 266.21 109.261 266.147 109.26 266.079C109.225 262.835 108.002 259.196 107.989 259.16C107.931 258.989 108.008 258.798 108.161 258.733C108.313 258.668 108.484 258.755 108.542 258.925C108.594 259.078 109.815 262.71 109.851 266.071C109.853 266.254 109.722 266.404 109.559 266.406C109.456 266.408 109.365 266.35 109.311 266.262Z" fill="black"/>
<path d="M142.829 324.568C140.502 329.425 136.087 331.666 133.333 329.997L104.867 313.234C101.467 311.233 99.9915 306.351 101.746 302.079C103.668 297.397 108.409 295.356 112.074 297.515L139.911 313.907C143.269 315.885 144.658 320.516 142.95 324.308C142.911 324.394 142.871 324.481 142.829 324.568Z" fill="#FE9F73"/>
<path d="M132.175 337.308C129.924 342.209 125.476 344.463 124.56 343.952L93.9764 326.849C90.5394 324.928 88.9817 320.088 90.6678 315.783C92.5153 311.066 97.2294 308.922 100.935 310.994L130.386 328.188C131.115 328.616 132.055 329.618 132.411 330.45C133.026 331.889 133.547 334.318 132.175 337.308Z" fill="#FE9F73"/>
<path d="M118.575 347.126C116.828 351.034 113.725 352.969 110.426 351.306L88.1691 339.257C85.4256 337.772 84.1504 333.954 85.4546 330.525C86.8835 326.766 90.6087 325.016 93.5667 326.618L117.807 340.176C118.224 340.409 118.563 340.788 118.765 341.259C119.228 342.338 119.767 344.46 118.575 347.126Z" fill="#FE9F73"/>
<path d="M147.364 309.279C145.443 313.289 142.831 315.286 140.998 314.63L116.021 299.921C113.214 298.269 111.996 294.239 113.444 290.711C115.031 286.845 118.945 285.161 121.972 286.943L145.085 300.553C147.688 302.086 148.833 305.613 147.648 308.627C147.564 308.842 147.47 309.059 147.364 309.279Z" fill="#FE9F73"/>
<path d="M90.4261 316.074C90.3185 315.963 90.2805 315.783 90.3427 315.624C91.3144 313.143 93.1245 311.213 95.3089 310.328C97.2648 309.536 99.3191 309.647 101.094 310.639L124.414 324.349C124.588 324.451 124.654 324.691 124.563 324.885C124.472 325.08 124.258 325.154 124.084 325.052L100.77 311.346C99.1774 310.456 97.3213 310.358 95.5501 311.075C93.5477 311.886 91.8865 313.66 90.9925 315.943C90.9139 316.144 90.7046 316.235 90.5251 316.147C90.4876 316.129 90.4544 316.104 90.4261 316.074Z" fill="black"/>
<path d="M119.936 341.792C119.823 341.675 119.788 341.485 119.86 341.324C119.947 341.127 120.161 341.048 120.336 341.146L123.877 343.126C125.853 344.189 129.69 341.851 131.859 337.127C131.949 336.931 132.163 336.855 132.337 336.955C132.511 337.055 132.58 337.295 132.49 337.49C130.071 342.759 125.845 345.066 123.565 343.839L120.019 341.856C119.988 341.839 119.96 341.817 119.936 341.792Z" fill="black"/>
<path d="M85.2133 330.815C85.1069 330.705 85.0681 330.527 85.1283 330.369C85.8875 328.372 87.3238 326.807 89.0688 326.074C90.6344 325.417 92.2867 325.483 93.7216 326.26L117.966 339.82C118.141 339.918 118.212 340.157 118.124 340.353C118.037 340.549 117.823 340.629 117.648 340.531L93.4082 326.973C92.1539 326.293 90.6999 326.238 89.3181 326.818C87.7539 327.474 86.4648 328.882 85.7813 330.68C85.7047 330.882 85.4962 330.976 85.3158 330.89C85.2771 330.871 85.2428 330.846 85.2133 330.815Z" fill="black"/>
<path d="M114.524 299.218C112.499 297.112 111.861 293.616 113.121 290.545C113.203 290.346 113.414 290.259 113.592 290.35C113.77 290.442 113.848 290.678 113.766 290.877C112.419 294.159 113.482 297.977 116.186 299.57L131.063 308.33C131.237 308.433 131.303 308.673 131.212 308.867C131.121 309.061 130.906 309.135 130.733 309.033L115.856 300.273C115.362 299.982 114.917 299.626 114.524 299.218Z" fill="black"/>
<path d="M140.757 314.921C140.659 314.82 140.617 314.66 140.66 314.509C140.72 314.3 140.92 314.185 141.106 314.252C142.851 314.877 145.296 312.755 147.052 309.091C147.144 308.898 147.359 308.825 147.532 308.929C147.705 309.032 147.77 309.273 147.677 309.467C145.727 313.537 142.999 315.764 140.89 315.009C140.839 314.99 140.794 314.959 140.757 314.921Z" fill="black"/>
<path d="M100.793 306.919C100.735 306.859 100.695 306.778 100.683 306.684C100.201 302.859 102.729 298.812 105.349 297.257C107.653 295.888 110.559 296.174 112.24 297.163C113.675 298.009 119.559 301.555 119.618 301.591C119.791 301.695 119.855 301.936 119.762 302.129C119.669 302.323 119.454 302.395 119.282 302.291C119.223 302.255 113.342 298.71 111.909 297.866C110.431 296.996 107.746 296.732 105.681 297.958C103.662 299.157 100.901 302.725 101.386 306.573C101.413 306.791 101.278 306.992 101.084 307.022C100.974 307.039 100.868 306.998 100.793 306.919Z" fill="black"/>
<path d="M133.091 330.288C132.979 330.172 132.943 329.983 133.014 329.821C133.101 329.625 133.314 329.544 133.49 329.641C136.41 331.253 139.953 328.397 141.622 326.084C141.745 325.914 141.969 325.887 142.121 326.025C142.275 326.163 142.298 326.413 142.175 326.583C140.362 329.095 136.47 332.171 133.176 330.353C133.144 330.336 133.116 330.314 133.091 330.288Z" fill="black"/>
<path d="M120.586 300.08L115.378 296.785C114.337 296.138 113.873 292.988 114.958 290.801C116.043 288.615 118.679 287.392 119.719 288.039L124.927 291.334C125.688 291.807 125.571 294.241 124.533 296.382C123.441 298.636 121.387 300.578 120.586 300.08Z" fill="#F07162"/>
<path d="M108.474 311.396L103.68 308.854C102.64 308.207 102.335 304.733 103.581 302.224C104.827 299.714 107.623 298.168 108.663 298.815L113.234 301.714C114.426 302.288 114.371 305.307 113.178 307.763C111.921 310.348 109.853 311.84 108.474 311.396Z" fill="#F07162"/>
<path d="M97.4662 325.91L92.2617 322.609C91.2211 321.962 90.9168 318.489 92.1625 315.979C93.4082 313.47 96.2042 311.924 97.2447 312.571L102.449 315.872C103.211 316.345 102.952 319.062 101.759 321.518C100.503 324.103 98.2677 326.409 97.4662 325.91Z" fill="#F07162"/>
<path d="M91.3221 339.226L86.8112 336.501C85.9097 335.968 85.5941 332.998 86.6217 330.823C87.6494 328.649 90.0202 327.269 90.9219 327.803L95.4328 330.528C96.0926 330.919 95.9142 333.252 94.9304 335.379C93.8947 337.618 92.0167 339.637 91.3221 339.226Z" fill="#F07162"/>
<path d="M582.318 398.393H2.90063V400H582.318V398.393Z" fill="#9FD6E2"/>
</svg>
