<svg width="600" height="400" viewBox="0 0 600 400" fill="none" xmlns="http://www.w3.org/2000/svg">
<path d="M538.987 266.888H394.39C391.805 266.888 389.701 264.784 389.701 262.198V51.58C389.701 48.9944 391.805 46.8904 394.39 46.8904H538.987C541.573 46.8904 543.677 48.9936 543.677 51.58V262.198C543.677 264.784 541.573 266.888 538.987 266.888ZM394.39 47.0904C391.914 47.0904 389.901 49.1048 389.901 51.58V262.198C389.901 264.674 391.915 266.688 394.39 266.688H538.987C541.463 266.688 543.477 264.674 543.477 262.198V51.58C543.477 49.1048 541.462 47.0904 538.987 47.0904H394.39Z" fill="#E0E0E0"/>
<path d="M372.245 266.888H227.648C225.062 266.888 222.958 264.784 222.958 262.198V51.58C222.958 48.9944 225.062 46.8904 227.648 46.8904H372.246C374.831 46.8904 376.935 48.9936 376.935 51.58V262.198C376.934 264.784 374.83 266.888 372.245 266.888ZM227.648 47.0904C225.173 47.0904 223.158 49.1048 223.158 51.58V262.198C223.158 264.674 225.173 266.688 227.648 266.688H372.246C374.722 266.688 376.735 264.674 376.735 262.198V51.58C376.735 49.1048 374.721 47.0904 372.246 47.0904H227.648Z" fill="#E0E0E0"/>
<path d="M205.61 266.888H61.0128C58.4272 266.888 56.3232 264.784 56.3232 262.198V51.58C56.3232 48.9944 58.4264 46.8904 61.0128 46.8904H205.61C208.195 46.8904 210.299 48.9936 210.299 51.58V262.198C210.3 264.784 208.196 266.888 205.61 266.888ZM61.0128 47.0904C58.5376 47.0904 56.5232 49.1048 56.5232 51.58V262.198C56.5232 264.674 58.5376 266.688 61.0128 266.688H205.61C208.086 266.688 210.099 264.674 210.099 262.198V51.58C210.099 49.1048 208.085 47.0904 205.61 47.0904H61.0128Z" fill="#E0E0E0"/>
<path d="M600 315.744H0V315.84H600V315.744Z" fill="#E0E0E0"/>
<path d="M567.484 339.245H522.901V339.582H567.484V339.245Z" fill="#EBEBEB"/>
<path d="M407.737 342.897H396.035V343.234H407.737V342.897Z" fill="#EBEBEB"/>
<path d="M90.6552 329.006H32.516V329.343H90.6552V329.006Z" fill="#EBEBEB"/>
<path d="M111.164 329.006H102.639V329.343H111.164V329.006Z" fill="#EBEBEB"/>
<path d="M264.959 334.69H138.869V335.026H264.959V334.69Z" fill="#EBEBEB"/>
<path d="M245.047 139.004C243.734 138.212 242.214 137.83 240.682 137.91C239.742 136.769 240.5 135.052 241.411 133.891C242.322 132.73 243.435 131.407 243.09 129.968C242.552 127.81 239.521 127.723 237.334 128.146C236.529 126.841 236.548 125.22 236.154 123.714C235.761 122.208 234.476 120.625 233.046 120.836C231.618 121.047 230.734 122.63 229.325 122.966C227.685 123.35 226.265 121.901 224.979 120.817C224.821 120.682 224.654 120.557 224.481 120.442C224.75 115.943 229.028 116.663 232.673 116.049C235.522 115.579 227.973 108.375 233.728 106.054C234.843 105.747 235.821 105.07 236.5 104.135C237.097 102.679 236.568 101.004 235.243 100.154C233.933 99.364 232.417 98.9832 230.888 99.0608C229.948 97.9192 230.706 96.2024 231.617 95.0416C232.528 93.8808 233.631 92.5568 233.295 91.1184C232.748 88.96 229.727 88.8736 227.54 89.296C226.734 87.9912 226.754 86.3704 226.36 84.8648C225.966 83.3592 224.691 81.776 223.252 81.9872C221.813 82.1984 220.94 83.7808 219.53 84.1168C217.89 84.5 216.47 83.052 215.185 81.968C213.899 80.884 211.654 80.2032 210.772 81.632C210.244 82.476 210.561 83.6656 210.005 84.5096C209.055 85.9488 206.782 85.0656 205.382 84.0296C203.981 82.9936 201.718 82.0536 200.758 83.4928C200.508 83.964 200.325 84.468 200.211 84.9896C200.074 85.3608 199.884 85.7104 199.646 86.0256C199.367 85.028 199.281 83.944 199.022 82.9368C198.629 81.44 197.354 79.848 195.914 80.0592C194.475 80.2704 193.602 81.8624 192.193 82.1888C190.552 82.5824 189.133 81.124 187.847 80.04C186.562 78.956 184.317 78.2752 183.434 79.7136C182.907 80.5576 183.223 81.7472 182.667 82.5912C182.552 82.7808 182.394 82.9424 182.206 83.0608C181.718 82.9648 181.238 82.9648 180.758 82.9648C179.818 81.8328 180.575 80.1256 181.486 78.9552C182.398 77.7848 183.51 76.4608 183.165 75.032C182.627 72.864 179.596 72.7872 177.41 73.2096C176.604 71.8952 176.623 70.2744 176.23 68.7784C175.836 67.2816 174.561 65.68 173.122 65.9008C171.683 66.1216 170.81 67.704 169.4 68.04C167.76 68.424 166.34 66.9848 165.054 65.8912C163.769 64.7976 161.524 64.1264 160.642 65.5552C160.114 66.3896 160.43 67.5888 159.874 68.4328C158.925 69.8624 156.67 68.98 155.261 67.944C153.85 66.908 151.587 65.968 150.627 67.4072C150.376 67.8816 150.192 68.388 150.08 68.9128C149.418 70.8312 147.337 71.7904 145.725 73.0184C144.114 74.2464 142.838 76.692 144.199 78.1888C144.87 78.9368 146.06 79.2152 146.396 80.1744C146.809 81.3064 145.61 82.4096 144.65 83.2248C143.394 84.62 143.023 86.6016 143.691 88.3568C143.214 88.792 142.647 89.1192 142.032 89.316C140.392 89.7 138.972 88.2512 137.686 87.1672C136.401 86.0832 134.156 85.4024 133.274 86.8312C132.746 87.6656 133.062 88.8648 132.506 89.7088C131.557 91.148 129.302 90.2648 127.893 89.2288C126.482 88.1928 124.219 87.2528 123.259 88.692C123.01 89.1632 122.826 89.6672 122.712 90.188C122.05 92.1064 119.969 93.0656 118.358 94.2936C116.746 95.5216 115.47 97.9672 116.832 99.4736C117.474 100.222 118.587 100.529 118.971 101.392C117.839 100.941 116.534 101.056 116.007 101.9C115.479 102.744 115.796 103.934 115.24 104.778C114.29 106.217 112.036 105.334 110.626 104.298C109.216 103.262 106.952 102.322 105.993 103.761C105.742 104.235 105.557 104.742 105.446 105.266C104.785 107.185 102.703 108.125 101.091 109.362C99.4792 110.6 98.204 113.046 99.5664 114.542C100.238 115.281 101.427 115.569 101.763 116.528C102.186 117.66 100.986 118.763 100.027 119.578C98.4352 120.922 98.1472 124.96 100.248 126.073C101.13 126.533 102.445 126.773 102.637 127.646C102.829 128.518 101.946 129.19 101.361 129.862C101.226 130.035 101.104 130.22 100.998 130.413C99.8888 132.427 100.622 134.958 102.637 136.067C103.145 136.298 103.759 136.499 103.951 137.026C104.023 137.421 103.98 137.827 103.826 138.197C103.625 138.93 103.557 139.694 103.625 140.451C103.625 140.712 103.724 140.962 103.903 141.151C104.095 141.289 104.329 141.357 104.565 141.343C107.596 141.478 109.054 140.403 110.906 143.041C111.067 143.306 111.283 143.535 111.538 143.712C111.798 143.842 112.083 143.91 112.373 143.914C114.454 144.086 115.798 142.791 117.716 142.542C120.373 142.206 120.92 143.568 123.251 144.662C126.906 146.388 128.681 145.323 129.371 142.83C129.553 142.123 129.662 141.4 129.698 140.671C129.682 139.571 130.148 138.52 130.974 137.794H131.031C132.978 137.957 134.293 136.844 136 136.498L137.084 136.383C139.108 136.364 139.779 137.582 141.88 138.542C142.846 139.051 143.915 139.336 145.007 139.376C145.314 140.508 144.202 141.525 143.242 142.311C141.66 143.664 141.372 147.702 143.473 148.806C144.346 149.266 145.67 149.525 145.862 150.388C146.054 151.251 145.171 151.932 144.586 152.594C144.451 152.766 144.331 152.949 144.226 153.14C143.112 155.158 143.844 157.696 145.862 158.81C146.361 159.05 146.984 159.242 147.166 159.769C147.247 160.165 147.207 160.576 147.051 160.949C146.841 161.677 146.772 162.439 146.85 163.194C146.846 163.456 146.942 163.71 147.118 163.903C147.316 164.037 147.552 164.101 147.79 164.086C150.821 164.22 152.278 163.146 154.13 165.783C154.287 166.053 154.503 166.282 154.763 166.454C155.023 166.582 155.308 166.654 155.598 166.666C157.679 166.838 159.022 165.534 160.941 165.294C163.588 164.958 164.145 166.32 166.466 167.414C170.13 169.13 171.905 168.075 172.595 165.582C172.778 164.872 172.887 164.146 172.922 163.414C173.19 158.925 177.469 159.634 181.123 159.03C181.381 159.01 181.608 158.851 181.718 158.617H181.948C184.03 158.79 185.373 157.494 187.291 157.245C189.948 156.909 190.495 158.271 192.826 159.365C196.48 161.091 198.255 160.026 198.946 157.533C199.128 156.823 199.238 156.097 199.272 155.365C199.512 151.873 202.15 151.528 205.027 151.259C205.118 152.641 205.917 153.878 207.138 154.53C207.646 154.761 208.26 154.962 208.452 155.49C208.524 155.883 208.481 156.29 208.327 156.66C208.126 157.39 208.058 158.15 208.126 158.905C208.122 159.166 208.218 159.421 208.394 159.614C208.593 159.746 208.827 159.814 209.066 159.806C212.097 159.941 213.555 158.866 215.406 161.504C215.568 161.77 215.784 161.998 216.039 162.175C216.298 162.305 216.584 162.374 216.874 162.377C218.955 162.55 220.298 161.254 222.217 161.005C224.874 160.669 225.421 162.031 227.751 163.125C231.406 164.851 233.181 163.786 233.871 161.293C234.053 160.586 234.162 159.863 234.198 159.134C234.466 154.635 238.754 155.355 242.399 154.741C245.248 154.27 237.69 147.067 243.445 144.746C244.56 144.439 245.538 143.762 246.217 142.827C246.748 141.438 246.266 139.862 245.047 139.004Z" fill="#E0E0E0"/>
<path d="M139.097 165.814C138.006 165.15 136.738 164.832 135.462 164.901C134.681 163.946 135.32 162.526 136.071 161.551C136.822 160.577 137.756 159.521 137.462 158.282C137.035 156.476 134.508 156.414 132.69 156.77C132.01 155.674 132.03 154.314 131.675 153.074C131.32 151.836 130.355 150.537 129.086 150.689C127.818 150.841 127.158 152.191 125.98 152.466C124.62 152.79 123.432 151.582 122.366 150.679C121.301 149.776 119.422 149.207 118.682 150.395C118.245 151.106 118.509 152.11 118.052 152.811C117.25 154.03 115.372 153.268 114.194 152.405C113.017 151.542 111.149 150.76 110.337 151.958C110.132 152.354 109.978 152.773 109.88 153.207C109.332 154.811 107.606 155.602 106.256 156.628C104.906 157.653 103.84 159.674 104.987 160.942C105.546 161.562 106.53 161.815 106.814 162.597C107.159 163.612 106.154 164.465 105.363 165.134C104.043 166.261 103.8 169.631 105.546 170.545C106.286 170.93 107.362 171.052 107.576 171.864C107.789 172.676 107.007 173.153 106.561 173.711C105.386 175.226 105.662 177.407 107.177 178.582C107.318 178.693 107.47 178.791 107.626 178.878C108.042 179.082 108.56 179.244 108.713 179.69C108.788 180.031 108.753 180.386 108.611 180.706C108.442 181.313 108.386 181.946 108.449 182.574C108.444 182.791 108.524 183.002 108.672 183.162C108.834 183.278 109.031 183.335 109.23 183.325C111.748 183.437 112.966 182.543 114.509 184.736C114.644 184.957 114.823 185.147 115.037 185.294C115.254 185.402 115.494 185.462 115.737 185.467C117.473 185.61 118.599 184.534 120.193 184.33C122.386 184.046 122.852 185.183 124.791 186.097C127.837 187.528 129.329 186.645 129.866 184.564C130.018 183.976 130.109 183.374 130.141 182.767C130.364 179.022 133.937 179.61 136.972 179.102C139.347 178.706 133.064 172.718 137.845 170.778C138.781 170.526 139.599 169.955 140.159 169.165C140.678 167.938 140.226 166.518 139.097 165.814Z" fill="#E0E0E0"/>
<path d="M185.513 145.118L189.424 132.712L197.04 122.917L195.739 121.831L188.554 129.662L187.278 117.257H185.198C185.198 117.257 186.906 131.995 184.448 137.392C184.448 137.392 175.519 160.109 170.083 165.026C169.775 165.311 169.507 165.636 169.285 165.992C167.654 161.81 165.535 157.837 162.97 154.154C165.118 148.662 169.724 136.591 171.289 130.134C172.515 125.117 173.435 120.03 174.043 114.902L172.262 114.706C172.262 114.706 167.21 138.563 158.86 149.42C156.386 147.147 153.582 145.262 150.542 143.832C149.863 140.479 149.576 134.644 151.795 125.535L150.03 125.084C150.03 125.084 146.662 132.791 146.958 142.043C145.702 141.412 144.49 140.694 143.334 139.896C135.287 134.236 129.627 124.01 129.627 124.01L127.98 125.614C127.98 125.614 134.848 140.695 144.419 145.732C153.99 150.769 160.193 163.046 160.688 166.264C160.823 167.182 161.93 174.471 160.397 187.242C150.212 182.898 130.03 170.933 128.689 169.83L126.339 172.99L158.991 196.354C159.502 227.486 157.15 259.878 157.237 266.887H176.251C175.783 257.219 171.777 220.865 173.555 182.868C173.706 181.934 173.866 180.864 174.018 179.619C175.503 167.964 184.348 152.04 188.555 147.512C193.063 142.66 198.074 138.813 198.074 138.813L196.918 136.332L185.513 145.118Z" fill="#E6E6E6"/>
<path d="M336.02 48.8832C336.02 46.396 334.003 44.3792 331.516 44.3792C331.079 44.3776 330.645 44.4424 330.228 44.5712C330.292 44.1128 330.324 43.6504 330.324 43.1872C330.324 37.9208 326.054 33.6512 320.788 33.6512C320.2 33.6512 319.614 33.7048 319.036 33.8112C316.642 29.8784 311.514 28.6304 307.582 31.024C305.132 32.5144 303.621 35.16 303.58 38.0272H303.436C299.192 38.164 295.863 41.7152 296 45.9592C296.13 50.0104 299.385 53.2648 303.436 53.3952H331.644C334.086 53.3304 336.03 51.3264 336.02 48.8832Z" fill="#F0F0F0"/>
<path d="M408.466 93.624C408.466 91.316 406.595 89.4456 404.288 89.4456C403.883 89.444 403.48 89.504 403.093 89.624C403.153 89.1984 403.182 88.7696 403.182 88.34C403.182 83.4536 399.221 79.4928 394.334 79.4928C393.79 79.4928 393.245 79.5424 392.709 79.6416C390.488 75.9928 385.73 74.8352 382.082 77.056C379.809 78.4392 378.407 80.8928 378.37 83.5528H378.236C374.299 83.68 371.21 86.9744 371.337 90.912C371.458 94.6704 374.477 97.6896 378.236 97.8112H404.406C406.673 97.7496 408.475 95.8912 408.466 93.624Z" fill="#E0E0E0"/>
<path d="M168.485 34.6536C168.485 33.2664 167.36 32.1416 165.973 32.1416C165.729 32.1408 165.487 32.1768 165.254 32.2488C165.29 31.9928 165.308 31.7352 165.308 31.4768C165.308 28.5392 162.926 26.1576 159.989 26.1576C159.661 26.1576 159.334 26.1872 159.012 26.2472C157.677 24.0536 154.816 23.3576 152.622 24.6928C151.256 25.524 150.413 27 150.39 28.5992H150.31C147.943 28.676 146.086 30.6568 146.162 33.0232C146.235 35.2832 148.05 37.0976 150.31 37.1712H166.045C167.406 37.1336 168.49 36.016 168.485 34.6536Z" fill="#F0F0F0"/>
<path d="M533.575 48.6816C533.575 46.2632 531.614 44.3024 529.196 44.3024C528.771 44.3008 528.35 44.3632 527.944 44.4888C528.006 44.0432 528.038 43.5936 528.038 43.1432C528.038 38.0224 523.886 33.8712 518.766 33.8712C518.194 33.8712 517.624 33.9232 517.062 34.0264C514.735 30.2024 509.749 28.9896 505.925 31.3168C503.543 32.7664 502.074 35.3384 502.034 38.1256H501.894C497.768 38.2584 494.531 41.712 494.664 45.8376C494.791 49.7768 497.955 52.9408 501.894 53.068H529.321C531.694 53.0056 533.584 51.0576 533.575 48.6816Z" fill="#F0F0F0"/>
<path d="M298.114 101.894C298.114 99.16 295.897 96.9432 293.162 96.9432C292.682 96.9408 292.205 97.012 291.746 97.1544C291.818 96.6504 291.853 96.1416 291.852 95.6328C291.852 89.8432 287.159 85.1504 281.37 85.1504C280.723 85.1504 280.079 85.2096 279.444 85.3264C276.813 81.0032 271.175 79.632 266.852 82.2624C264.159 83.9016 262.498 86.8088 262.454 89.9608H262.295C257.63 90.1112 253.97 94.0152 254.121 98.68C254.265 103.134 257.842 106.71 262.295 106.854H293.303C295.988 106.782 298.124 104.58 298.114 101.894Z" fill="#E0E0E0"/>
<path d="M490.334 266.627H495.495V82.4448C495.487 73.192 487.989 65.6936 478.736 65.6856H474.179V70.8464H478.736C485.138 70.8544 490.326 76.0424 490.334 82.444V266.627Z" fill="#E0E0E0"/>
<path d="M441.141 72.0048H478.295L477.447 66.4008C477.163 64.5208 475.685 63.0456 473.804 62.7656C471.356 62.404 468.149 61.9696 466.645 61.94C462.258 61.844 451.412 62.9792 446.118 63.5768C444.326 63.7856 442.855 65.0896 442.431 66.8432L441.141 72.0048Z" fill="#EBEBEB"/>
<path d="M445.07 75.9272H474.371C476.538 75.9272 478.294 74.1712 478.294 72.0048H441.14C441.145 74.172 442.903 75.9272 445.07 75.9272Z" fill="#F5F5F5"/>
<path d="M465.715 84.0792L472.683 100.517" stroke="#E0E0E0" stroke-width="0.5" stroke-miterlimit="10" stroke-linecap="round" stroke-linejoin="round"/>
<path d="M458.887 84.0792C458.887 93.5696 458.306 101.462 458.306 110.954" stroke="#E0E0E0" stroke-width="0.5" stroke-miterlimit="10" stroke-linecap="round" stroke-linejoin="round"/>
<path d="M453.077 83.3528L442.908 96.7168" stroke="#E0E0E0" stroke-width="0.5" stroke-miterlimit="10" stroke-linecap="round" stroke-linejoin="round"/>
<path d="M510.08 361.306C510.08 364.016 416.024 366.212 300 366.212C183.976 366.212 89.92 364.016 89.92 361.306C89.92 358.597 183.976 356.401 300 356.401C416.024 356.401 510.08 358.597 510.08 361.306Z" fill="#F5F5F5"/>
<path d="M125.299 252.17H52.616C45.0936 252.17 38.996 246.072 38.996 238.55V69.5408C38.996 63.7368 43.7008 59.032 49.5048 59.032H128.41C134.214 59.032 138.919 63.7368 138.919 69.5408V238.55C138.919 246.072 132.822 252.17 125.299 252.17Z" fill="#263238"/>
<path d="M109.67 63.3648L108.071 66.5248H68.9712L66.6456 63.3648H48.1616C45.204 63.3648 42.8064 65.7336 42.8064 68.6568V239.033C42.8064 243.449 46.4288 247.029 50.8976 247.029H127.016C131.485 247.029 135.107 243.449 135.107 239.033V68.6568C135.107 65.7344 132.71 63.3648 129.753 63.3648H109.67Z" fill="#407BFF"/>
<path d="M87.304 64.672C88.1921 64.672 88.912 63.9521 88.912 63.064C88.912 62.1759 88.1921 61.456 87.304 61.456C86.4159 61.456 85.696 62.1759 85.696 63.064C85.696 63.9521 86.4159 64.672 87.304 64.672Z" fill="white"/>
<path d="M91.2856 63.064C91.2856 63.508 90.9256 63.868 90.4816 63.868C90.0376 63.868 89.6776 63.508 89.6776 63.064C89.6776 62.62 90.0376 62.26 90.4816 62.26C90.9264 62.26 91.2856 62.62 91.2856 63.064Z" fill="white"/>
<path d="M129.753 63.3648H109.67L108.071 66.5248H68.9712L66.6456 63.3648H48.1616C45.204 63.3648 42.8064 65.7336 42.8064 68.6568V112.248H135.106V68.6568C135.107 65.7336 132.71 63.3648 129.753 63.3648Z" fill="#407BFF"/>
<path opacity="0.6" d="M58.8632 67.3088H57.6432V68.936H58.8632V67.3088Z" fill="white"/>
<path opacity="0.6" d="M56.8664 66.7664H55.6464V68.936H56.8664V66.7664Z" fill="white"/>
<path opacity="0.6" d="M54.8824 66.224H53.6624V68.936H54.8824V66.224Z" fill="white"/>
<path opacity="0.6" d="M52.8976 65.688H51.6776V68.9424H52.8976V65.688Z" fill="white"/>
<path opacity="0.6" d="M123.144 66.7168H122.423V68.344H123.144V66.7168Z" fill="white"/>
<path opacity="0.6" d="M129.406 66.1256H123.643V68.9424H129.406V66.1256Z" fill="white"/>
<path opacity="0.4" d="M135.07 104.948H42.912V241.414H135.07V104.948Z" fill="white"/>
<path opacity="0.2" d="M135.071 125.943V119.11L113.396 139.095L90.4994 131.471L104.845 104.942H99.073L92.957 116.237L48.597 104.942H42.9274V108.613L59.621 112.849L46.073 136.71L77.8578 144.186L74.0834 151.162L42.913 143.346V148.458L71.6402 155.658L62.3426 172.862L47.661 168.739L42.913 171.726V177.656L48.4874 174.126L59.921 177.331L42.913 208.789V219.463L54.0394 198.892L69.1746 203.184V221.962L99.9634 241.417H110.082L74.2954 218.856V204.631L135.071 221.857V216.703L116.937 211.542L122.482 182.069L135.108 185.26V180.156L101.04 171.534L116.154 143.422L135.071 125.943ZM53.7682 133.426L64.741 114.168L90.5498 120.747L80.3082 139.674L53.7682 133.426ZM117.478 180.81L111.991 210.164L56.453 194.422L72.005 165.654L77.9594 172.007L96.665 175.537L117.478 180.81ZM95.8682 170.362L80.645 167.475L74.5514 160.952L88.0994 135.898L110.397 143.324L95.8682 170.362Z" fill="black"/>
<path opacity="0.6" d="M119.07 97.3288H65.6C63.7008 97.332 62.1584 95.7952 62.1544 93.896C62.1544 93.8936 62.1544 93.892 62.1544 93.8896C62.1544 91.9904 63.6944 90.4504 65.5936 90.4504C65.5952 90.4504 65.5976 90.4504 65.6 90.4504H119.07C120.97 90.4568 122.504 92.0024 122.498 93.9016C122.498 93.908 122.498 93.9144 122.498 93.92C122.48 95.8032 120.953 97.3224 119.07 97.3288Z" fill="white"/>
<path d="M57.976 91.4552C56.9464 90.4264 55.2776 90.4264 54.2472 91.4552C53.2384 92.4816 53.2384 94.1272 54.2472 95.1528L56.096 97.0016L57.9448 95.1528C58.9624 94.1352 58.976 92.4904 57.976 91.4552ZM56.9408 94.1488C56.4832 94.6056 55.7416 94.6048 55.2848 94.1472C54.828 93.6896 54.8288 92.948 55.2864 92.4912C55.7432 92.0352 56.4832 92.0352 56.9408 92.4912C57.4056 92.9456 57.4136 93.6912 56.9584 94.156C56.9528 94.1616 56.9464 94.168 56.9408 94.1736V94.1488Z" fill="white"/>
<path d="M113.893 209.14C111.974 209.14 110.418 210.642 110.418 212.494C110.418 214.346 111.974 215.847 113.893 215.847C115.812 215.847 117.367 214.346 117.367 212.494C117.368 210.642 115.812 209.14 113.893 209.14ZM113.893 214.675C112.644 214.675 111.632 213.698 111.632 212.494C111.632 211.289 112.644 210.312 113.893 210.312C115.142 210.312 116.154 211.289 116.154 212.494C116.154 213.698 115.142 214.675 113.893 214.675Z" fill="white"/>
<path d="M115.268 212.494C115.268 213.226 114.652 213.821 113.893 213.821C113.134 213.821 112.518 213.226 112.518 212.494C112.518 211.761 113.134 211.166 113.893 211.166C114.652 211.166 115.268 211.761 115.268 212.494Z" fill="white"/>
<path opacity="0.4" d="M101.998 116.71L94.6832 130.356L113.403 135.898L123.733 125.577C116.309 123.047 109.051 120.086 101.998 116.71Z" fill="white"/>
<path opacity="0.4" d="M135.071 104.941V114.259L125.912 123.437C119.753 121.319 113.674 119.031 107.755 116.378C106.253 115.71 104.768 115.015 103.3 114.295L108.289 104.942H135.071V104.941Z" fill="white"/>
<path opacity="0.4" d="M88.992 138.912L106.373 144.566L97.6824 162.117L80.0376 156.646L88.992 138.912Z" fill="white"/>
<path opacity="0.4" d="M106.387 169.126C106.534 168.654 114.924 151.894 114.924 151.894L127.36 155.629L129.554 174.584L106.387 169.126Z" fill="white"/>
<path opacity="0.4" d="M117.971 148.538L130.995 151.894L132.038 137.628L120.281 143.836L117.971 148.538Z" fill="white"/>
<path opacity="0.4" d="M80.9304 195.12C81.1936 194.908 86.9656 177.739 86.9656 177.739L113.894 182.314L109.41 205.236L80.9304 195.12Z" fill="white"/>
<path opacity="0.4" d="M66.4384 185.307L74.5584 187.891L70.4984 195.12C70.4984 195.12 61.9472 193.228 61.9472 192.67C61.9472 192.113 66.4384 185.307 66.4384 185.307Z" fill="white"/>
<path opacity="0.4" d="M66.8848 207.05C66.6872 207.517 61.7544 241.414 61.7544 241.414H42.912L43.4752 229.874L54.88 204.545L66.8848 207.05Z" fill="white"/>
<path opacity="0.4" d="M135.071 223.782V238.094L114.475 238.879L96.5688 226.006C96.5688 226.006 99.6496 217.448 100.571 214.723L135.071 223.782Z" fill="white"/>
<path opacity="0.4" d="M97.8136 213.976L82.3488 209.91L80.1544 217.245L94.1488 224.555C94.1488 224.555 97.8136 214.675 97.8136 213.976Z" fill="white"/>
<path opacity="0.4" d="M135.071 194.414V210.044L120.842 207.05L123.739 192.254L135.071 194.414Z" fill="white"/>
<path opacity="0.4" d="M49.92 164.46L54.4336 154.506L67.0016 158.078L61.9464 168.477L49.92 164.46Z" fill="white"/>
<path opacity="0.4" d="M61.3688 129.833L67.5648 118.997L84.3752 123.706L78.7352 135.276L61.3688 129.833Z" fill="white"/>
<path opacity="0.4" d="M94.9608 104.941C93.4024 107.983 91.3912 111.845 91.0688 112.092C90.7472 112.339 69.964 107.256 60.776 104.941H94.9608Z" fill="white"/>
<path opacity="0.4" d="M54.4264 115.82L42.912 139.038V112.933L54.4264 115.82Z" fill="white"/>
<path d="M115.275 208.462H115.143C114.749 208.394 114.484 208.032 114.55 207.65L119.554 179.772C116.014 178.727 97.6744 173.418 79.9416 170.524C79.7824 170.5 79.636 170.426 79.5248 170.312L71.0904 161.481C70.8824 161.265 70.836 160.946 70.9736 160.683L80.7616 142.498L49.7888 135.734C49.3952 135.647 49.1496 135.268 49.24 134.888C49.2552 134.823 49.28 134.762 49.3136 134.704L59.7304 116.349C59.932 116.006 60.384 115.886 60.74 116.081C61.0952 116.276 61.22 116.712 61.0176 117.055L51.032 134.591L81.9832 141.354C82.3776 141.438 82.6264 141.815 82.5392 142.196C82.5256 142.257 82.5032 142.316 82.4728 142.371L72.48 160.917L80.4024 169.183C100.066 172.402 120.374 178.558 120.578 178.622C120.925 178.729 121.137 179.066 121.076 179.412L115.992 207.869C115.935 208.21 115.633 208.46 115.275 208.462Z" fill="white"/>
<path d="M63.6912 107.228C62.1456 105.669 59.6288 105.658 58.0696 107.204C58.0616 107.212 58.0536 107.22 58.0456 107.228C56.5136 108.78 56.5136 111.275 58.0456 112.826L60.8448 115.626L63.644 112.826C65.1896 111.287 65.2104 108.792 63.6912 107.228ZM62.1232 111.286C61.4272 111.982 60.2992 111.983 59.6032 111.287C58.9072 110.591 58.9064 109.463 59.6024 108.766C60.2984 108.07 61.4264 108.07 62.1232 108.766L62.124 108.766C62.8184 109.463 62.8184 110.59 62.1232 111.286Z" fill="white"/>
<path d="M108.286 125.986H74.6744C73.0104 125.986 71.6624 124.637 71.6624 122.974V111.532C71.6624 109.868 73.0112 108.519 74.6744 108.519H108.286C109.95 108.519 111.298 109.868 111.298 111.532V122.974C111.298 124.637 109.95 125.986 108.286 125.986Z" fill="white"/>
<path d="M80.9552 116.979C82.2851 116.979 83.3632 115.901 83.3632 114.571C83.3632 113.241 82.2851 112.163 80.9552 112.163C79.6253 112.163 78.5472 113.241 78.5472 114.571C78.5472 115.901 79.6253 116.979 80.9552 116.979Z" fill="#407BFF"/>
<path d="M80.9552 117.26C78.8312 117.26 77.1088 118.982 77.1088 121.106H84.8016C84.8016 118.982 83.08 117.26 80.9552 117.26Z" fill="#407BFF"/>
<path d="M91.7128 116.979C93.0424 116.979 94.1208 115.901 94.1208 114.571C94.1208 113.242 93.0424 112.163 91.7128 112.163C90.3824 112.163 89.3048 113.242 89.3048 114.571C89.3048 115.901 90.3832 116.979 91.7128 116.979Z" fill="#407BFF"/>
<path d="M91.7128 117.26C89.5888 117.26 87.8664 118.982 87.8664 121.106H95.5592C95.5592 118.982 93.8376 117.26 91.7128 117.26Z" fill="#407BFF"/>
<path d="M104.7 115.492C105.209 114.263 104.625 112.855 103.396 112.346C102.168 111.837 100.759 112.42 100.25 113.649C99.7412 114.878 100.325 116.286 101.553 116.795C102.782 117.304 104.191 116.721 104.7 115.492Z" stroke="#407BFF" stroke-width="0.5" stroke-miterlimit="10"/>
<path d="M102.471 117.26C100.347 117.26 98.6248 118.982 98.6248 121.106H106.318C106.317 118.982 104.595 117.26 102.471 117.26Z" stroke="#407BFF" stroke-width="0.5" stroke-miterlimit="10"/>
<path d="M73.5056 108.519H66.6064C66.6064 108.519 72.3856 113.163 72.5176 113.163C72.6496 113.163 73.5056 108.519 73.5056 108.519Z" fill="white"/>
<path opacity="0.4" d="M66.8848 241.414C66.292 241.414 71.56 230.115 71.5256 229.895C71.3816 228.988 90.9728 241.414 90.9728 241.414H66.8848Z" fill="white"/>
<path d="M298.127 83.6424C310.07 72.144 329.073 72.504 340.571 84.4472C351.761 96.0688 351.763 114.456 340.578 126.081L323.621 143.04C321.267 145.394 317.45 145.394 315.096 143.04L298.127 126.071C286.418 114.351 286.418 95.3616 298.127 83.6424ZM319.356 118.814C327.271 118.814 333.646 112.215 333.278 104.219C332.951 97.1224 327.111 91.2824 320.014 90.956C312.018 90.588 305.42 96.9624 305.42 104.878V104.881C305.435 112.566 311.67 118.789 319.357 118.789V118.814H319.356Z" fill="#407BFF"/>
<path d="M348.642 111.513H476.854V140.979" stroke="#407BFF" stroke-miterlimit="10"/>
<path d="M476.854 142.527C478.616 142.527 480.045 141.098 480.045 139.336C480.045 137.574 478.616 136.145 476.854 136.145C475.091 136.145 473.662 137.574 473.662 139.336C473.662 141.098 475.091 142.527 476.854 142.527Z" fill="#407BFF"/>
<path d="M568.626 123.581C576.327 119.167 578.991 109.346 574.577 101.645C570.163 93.9445 560.342 91.2801 552.641 95.6941C544.941 100.108 542.276 109.929 546.69 117.63C551.104 125.33 560.925 127.995 568.626 123.581Z" fill="#407BFF"/>
<path d="M549.871 116.322L545.76 115.859L544.068 120.797L549.196 120.539L549.871 116.322Z" fill="#407BFF"/>
<path d="M573.684 95.32C577.928 98.3688 580.459 103.656 580.174 108.874" stroke="#407BFF" stroke-width="0.5" stroke-miterlimit="10" stroke-linecap="round" stroke-linejoin="round"/>
<path d="M579.958 111.262C579.973 112.058 579.822 112.858 579.517 113.594" stroke="#407BFF" stroke-width="0.5" stroke-miterlimit="10" stroke-linecap="round" stroke-linejoin="round"/>
<path d="M561.027 109.715C562.807 109.715 564.25 108.272 564.25 106.492C564.25 104.712 562.807 103.269 561.027 103.269C559.247 103.269 557.804 104.712 557.804 106.492C557.804 108.272 559.247 109.715 561.027 109.715Z" fill="white"/>
<path d="M561.027 110.09C558.184 110.09 555.879 112.395 555.879 115.238H566.175C566.175 112.394 563.87 110.09 561.027 110.09Z" fill="white"/>
<path d="M237.656 145.265C240.933 137.016 236.902 127.672 228.652 124.395C220.403 121.118 211.059 125.149 207.782 133.398C204.505 141.647 208.536 150.991 216.786 154.268C225.035 157.545 234.379 153.514 237.656 145.265Z" fill="#407BFF"/>
<path d="M229.016 150.235L227.906 154.221L232.513 156.675L233.073 151.572L229.016 150.235Z" fill="#407BFF"/>
<path d="M235.766 125.012C240.01 128.061 242.542 133.348 242.256 138.566" stroke="#407BFF" stroke-width="0.5" stroke-miterlimit="10" stroke-linecap="round" stroke-linejoin="round"/>
<path d="M242.04 140.954C242.055 141.75 241.905 142.55 241.599 143.286" stroke="#407BFF" stroke-width="0.5" stroke-miterlimit="10" stroke-linecap="round" stroke-linejoin="round"/>
<path d="M222.707 139.798C224.487 139.798 225.93 138.355 225.93 136.574C225.93 134.794 224.487 133.351 222.707 133.351C220.927 133.351 219.484 134.794 219.484 136.574C219.484 138.355 220.927 139.798 222.707 139.798Z" fill="white"/>
<path d="M222.707 140.173C219.864 140.173 217.559 142.478 217.559 145.321H227.855C227.855 142.478 225.55 140.173 222.707 140.173Z" fill="white"/>
<path d="M564.638 314.689L572.515 308.486C577.538 314.204 581.589 319.901 584.648 323.302L582.749 327.762L577.618 326.732C577.618 326.732 572.172 320.896 564.638 314.689Z" fill="#B97964"/>
<path d="M572.183 322.903L575.247 320.951C578.383 322.538 579.009 321.272 579.394 318.455C580.216 317.786 581.105 318.653 581.352 318.881L586.877 323.878C587.344 324.292 587.387 325.006 586.973 325.473C586.899 325.556 586.814 325.628 586.719 325.686C584.014 327.409 582.734 328.225 579.367 330.37L569.068 336.93C566.261 338.719 563.877 336.26 564.867 335.262C569.335 330.8 572.043 326.924 572.686 324.387C572.815 323.933 572.382 323.93 572.183 322.903Z" fill="#407BFF"/>
<path d="M571.732 325.607C572.566 325.223 573.57 325.228 574.4 325.621" stroke="#263238" stroke-width="0.5" stroke-miterlimit="10" stroke-linecap="round" stroke-linejoin="round"/>
<path d="M571.011 327.532C571.846 327.148 572.85 327.153 573.68 327.546" stroke="#263238" stroke-width="0.5" stroke-miterlimit="10" stroke-linecap="round" stroke-linejoin="round"/>
<path d="M569.846 329.506C570.681 329.122 571.685 329.126 572.515 329.519" stroke="#263238" stroke-width="0.5" stroke-miterlimit="10" stroke-linecap="round" stroke-linejoin="round"/>
<path opacity="0.7" d="M586.973 325.473C586.899 325.556 586.814 325.628 586.719 325.686C584.014 327.409 582.734 328.225 579.366 330.37L569.068 336.93C567.549 337.898 566.159 337.619 565.355 337.004C565.785 336.735 586.35 323.857 586.562 323.594L586.964 323.973C587.342 324.394 587.357 325.039 586.973 325.473Z" fill="white"/>
<path d="M518.182 314.465L530.389 321.992C529.482 331.149 527.231 339.472 528.079 343.967L524.141 346.792L518.776 341.199C518.776 341.199 519.237 324.812 518.182 314.465Z" fill="#B97964"/>
<path d="M518.292 337.154L521.924 337.076C523.781 340.06 524.972 339.303 526.763 337.096C527.814 336.951 528.123 338.154 528.216 338.476L530.343 345.615C530.527 346.211 530.194 346.844 529.598 347.028C529.491 347.061 529.382 347.078 529.27 347.078C526.063 347.146 524.546 347.179 520.554 347.264L508.346 347.524C505.018 347.595 504.257 344.256 505.621 343.916C511.756 342.423 516.082 340.516 517.95 338.682C518.297 338.362 517.929 338.134 518.292 337.154Z" fill="#407BFF"/>
<path d="M516.502 339.23C517.415 339.335 518.27 339.861 518.776 340.627" stroke="#263238" stroke-width="0.5" stroke-miterlimit="10" stroke-linecap="round" stroke-linejoin="round"/>
<path d="M514.887 340.501C515.799 340.606 516.655 341.131 517.161 341.898" stroke="#263238" stroke-width="0.5" stroke-miterlimit="10" stroke-linecap="round" stroke-linejoin="round"/>
<path d="M512.867 341.583C513.78 341.688 514.635 342.214 515.141 342.98" stroke="#263238" stroke-width="0.5" stroke-miterlimit="10" stroke-linecap="round" stroke-linejoin="round"/>
<path opacity="0.7" d="M529.598 347.029C529.491 347.062 529.382 347.078 529.27 347.079C526.063 347.147 524.546 347.18 520.554 347.265L508.346 347.525C506.545 347.563 505.502 346.603 505.134 345.66C505.641 345.653 529.904 345.325 530.222 345.21L530.368 345.743C530.474 346.299 530.152 346.858 529.598 347.029Z" fill="white"/>
<path d="M534.679 139.577C534.679 139.577 533.31 135.066 534.752 126.648C534.75 126.639 534.3 126.498 534.298 126.489C534.495 125.312 534.723 124.219 534.946 123.269C534.951 123.242 534.95 123.233 534.95 123.233L524.578 131.385C525.135 133.962 524.769 139.105 524.451 141.295C524.451 141.295 523.479 145.307 528.622 144.896C532.382 144.595 534.679 139.577 534.679 139.577Z" fill="#B97964"/>
<path opacity="0.2" d="M524.802 135.071L531.056 132.899C530.699 134.961 529.201 137.526 524.757 138.224C524.757 138.224 524.95 135.94 524.802 135.071Z" fill="black"/>
<path d="M534.424 117.806C534.471 124.96 534.642 128.994 531.284 132.863C526.232 138.683 517.413 136.086 515.223 129.07C513.252 122.754 513.506 112.116 520.305 108.872C527.003 105.676 534.376 110.652 534.424 117.806Z" fill="#B97964"/>
<path d="M534.744 109.178C533.498 105.319 523.656 105.946 521.045 108.139C520.654 108.467 526.682 110.998 526.319 110.893L529.128 111.655C529.544 111.533 530.408 111.97 530.927 113.254C530.927 113.254 531.358 124.198 534.669 127.149C537.074 125.766 536.924 121.427 537.533 118.796C538.44 114.876 539.465 109.154 534.744 109.178Z" fill="#263238"/>
<path d="M537.642 123.554C537.197 125.426 535.925 126.912 534.559 127.71C532.505 128.911 531.554 126.641 531.602 124.382C531.646 122.35 532.068 119.849 534.381 119.569C536.66 119.294 538.15 121.412 537.642 123.554Z" fill="#B97964"/>
<path d="M524.366 120.558C524.416 121.286 524.069 121.9 523.591 121.928C523.114 121.956 522.686 121.387 522.637 120.658C522.587 119.93 522.934 119.316 523.411 119.288C523.89 119.26 524.317 119.828 524.366 120.558Z" fill="#263238"/>
<path d="M517.226 121.186C517.276 121.915 516.93 122.529 516.452 122.557C515.974 122.585 515.547 122.016 515.497 121.287C515.447 120.558 515.794 119.945 516.271 119.917C516.749 119.889 517.177 120.458 517.226 121.186Z" fill="#263238"/>
<path d="M519.525 120.624C519.525 120.624 517.464 124.404 516.824 125.929C517.901 126.776 519.62 126.234 519.62 126.234L519.525 120.624Z" fill="#A24E3F"/>
<path d="M525.914 117C525.807 117.053 525.675 117.048 525.569 116.975C524.3 116.118 523.13 116.585 523.118 116.589C522.943 116.661 522.742 116.578 522.668 116.405C522.594 116.231 522.677 116.032 522.85 115.96C522.912 115.934 524.378 115.349 525.952 116.414C526.11 116.52 526.15 116.732 526.045 116.887C526.011 116.937 525.966 116.974 525.914 117Z" fill="#263238"/>
<path d="M522.168 128.395C523.351 128.324 524.228 127.671 525.084 126.728" stroke="#263238" stroke-width="0.75" stroke-miterlimit="10" stroke-linecap="round" stroke-linejoin="round"/>
<path opacity="0.2" d="M535.88 121.694C535.564 121.289 534.968 121.172 534.478 121.329C533.989 121.486 533.599 121.87 533.323 122.304C532.992 122.825 532.8 123.434 532.773 124.05" stroke="black" stroke-width="0.5" stroke-miterlimit="10" stroke-linecap="round" stroke-linejoin="round"/>
<path d="M513.862 118.324C513.798 118.314 513.735 118.287 513.682 118.24C513.541 118.114 513.527 117.897 513.652 117.756C514.902 116.344 516.458 116.581 516.528 116.582C516.714 116.612 516.843 116.787 516.816 116.974C516.789 117.16 516.617 117.287 516.432 117.26C516.367 117.247 515.168 117.081 514.164 118.214C514.086 118.303 513.971 118.34 513.862 118.324Z" fill="#263238"/>
<path d="M535.994 105.982C535.329 104.434 533.233 104.256 531.693 104.714C531.602 102.761 528.971 101.852 527.378 102.039C525.72 102.234 525.18 102.95 525.18 102.95C525.31 102.966 524.594 102.029 524.17 101.669C522.601 100.34 520.281 100.095 518.527 101.074C516.774 102.054 515.687 104.199 515.886 106.294C514.764 105.33 512.918 105.529 512.038 106.709C511.158 107.889 511.409 109.828 512.561 110.752C511.346 110.932 510.437 112.305 510.693 113.573C510.949 114.84 512.318 115.742 513.504 115.426C513.702 116.86 514.01 118.646 514.208 120.079L515.674 114.618C516.634 114.181 516.784 113.713 516.89 112.613C517.736 113.91 518.868 113.702 520.339 113.518C521.81 113.334 523.129 112.226 523.62 110.762C524.507 112.117 526.05 113.07 527.592 112.901C529.134 112.731 530.508 111.244 530.361 109.617C531.394 110.928 533.366 111.286 534.726 110.409C536.086 109.531 536.659 107.531 535.994 105.982Z" fill="#263238"/>
<path d="M546.827 139.123C546.827 139.123 553.19 139.298 555.747 146.395C558.102 152.93 564.093 167.34 564.093 167.34L549.77 171.534L544.068 154.471L546.827 139.123Z" fill="#407BFF"/>
<path d="M523.429 207.183L532.063 225.607C532.063 225.607 518.354 266.88 517.53 271.182C516.706 275.483 516.323 329.677 516.323 329.677L531.578 329.701L537.559 276.835C537.559 276.835 556.084 231.936 557.442 228.285C559.983 221.454 557.318 212.266 557.318 212.266L552.601 205.465L523.429 207.183Z" fill="#263238"/>
<path d="M515.051 216.422C515.051 218.098 521.002 275.266 521.979 275.47C522.956 275.675 566.07 322.828 566.07 322.828L578.312 312.078L546.678 269.187L543.175 230.644L541.948 206.416L514.358 208.455L515.051 216.422Z" fill="#263238"/>
<path opacity="0.4" d="M535.975 290.381L536.736 276.955L545.599 257.314L538.946 278.078L538.31 292.296L535.975 290.381Z" fill="black"/>
<path opacity="0.4" d="M519.99 262.435L532.063 225.607L527.859 221.766L529.194 227.049L519.466 258.061L519.99 262.435Z" fill="black"/>
<path d="M478.263 157.023L496.943 174.17L505.65 157.962C505.65 157.962 515.15 167.342 514.826 167.481C514.502 167.619 503.643 191.396 495.811 187.13C487.979 182.863 474.736 161.411 474.736 161.411L478.263 157.023Z" fill="#B97964"/>
<path opacity="0.2" d="M496.943 174.169C496.943 174.169 498.562 176.76 498.361 179.204C498.361 179.204 499.086 178.006 498.866 176.06C498.647 174.114 497.698 172.766 497.698 172.766L496.943 174.169Z" fill="black"/>
<path d="M514.139 143.379C519.238 145.996 521.286 155.291 510.326 177.702L497.238 167.604C499.337 162.012 501.466 159.101 504.823 152.312C510.146 141.774 514.139 143.379 514.139 143.379Z" fill="#407BFF"/>
<path d="M513.976 143.038C517.574 142.241 531.878 138.495 547.179 139.137L555.262 196.129C555.262 196.129 556.832 203.597 558.98 211.004C544.41 219.442 524.186 220.802 513.334 216.199C513.478 216.426 513.138 210.114 512.671 200.864C511.85 184.564 510.641 159.142 511.018 144.307C511.032 143.941 513.618 143.118 513.976 143.038Z" fill="#407BFF"/>
<path opacity="0.2" d="M511.51 175.222L510.997 156.789L508.67 176.424L510.326 177.702L511.51 175.222Z" fill="black"/>
<path opacity="0.2" d="M550.571 171.301L549.77 171.535L544.554 157.558L548.467 173.553L551.127 173.566L550.571 171.301Z" fill="black"/>
<path d="M480.066 159.994C480.066 159.994 481.498 157.73 480.987 155.574C480.476 153.419 480.642 151.562 480.151 149.986C479.661 148.41 478.771 150.452 478.518 151.634C478.264 152.817 477.966 154.154 477.108 153.821C476.25 153.487 471.282 147.327 470.04 147C468.798 146.672 469.29 147.92 469.29 147.92C469.29 147.92 468.043 146.457 467.329 146.793C467.143 146.88 466.854 147.384 467.318 148.14C468.361 149.841 470.734 153.298 470.734 153.298C470.602 153.097 467.368 149.039 466.804 148.494C466.067 147.783 465.357 147.823 464.958 148.264C464.391 148.891 468.23 154.058 468.239 154.39C468.239 154.39 466.129 151.341 465.043 151.455C463.958 151.57 465.182 153.561 466.594 155.112C467.89 156.534 470.058 159.662 471.514 160.98C473.31 162.604 474.879 163.291 476.962 162.388C479.045 161.484 480.066 159.994 480.066 159.994Z" fill="#B97964"/>
<path opacity="0.3" d="M469.491 148.08C470.461 149.278 471.377 150.52 472.234 151.802" stroke="black" stroke-width="0.25" stroke-miterlimit="10" stroke-linecap="round" stroke-linejoin="round"/>
<path opacity="0.3" d="M469.018 155.601C470.182 153.986 471.831 152.724 473.695 152.024" stroke="black" stroke-width="0.25" stroke-miterlimit="10" stroke-linecap="round" stroke-linejoin="round"/>
<path opacity="0.3" d="M476.854 154.781C476.306 155.379 475.974 156.173 475.935 156.983C475.895 157.794 476.146 158.615 476.633 159.265" stroke="black" stroke-width="0.25" stroke-miterlimit="10" stroke-linecap="round" stroke-linejoin="round"/>
<path d="M563.017 167.656C563.017 167.656 567.326 177.863 569.155 187.022C569.986 191.186 566.659 193.854 563.257 194.676C552.536 197.266 528.378 197.275 528.378 197.275L527.746 189.906L555.571 183.886L550.571 171.3L563.017 167.656Z" fill="#B97964"/>
<path d="M528.318 198.844L519.197 199.873C518.885 199.908 518.574 199.8 518.351 199.58L504.47 185.857C503.898 185.29 504.161 184.316 504.941 184.114L512.962 182.046C513.314 181.954 513.689 182.055 513.949 182.311L528.93 197.074C529.55 197.687 529.184 198.746 528.318 198.844Z" fill="#263238"/>
<path d="M529.17 189.946C529.17 189.946 528.913 188.873 524.878 187.642C521.813 186.706 518.768 183.838 518.274 183.936C517.779 184.035 517.238 185.596 518.513 186.977C519.789 188.357 521.108 189.135 520.771 189.662C519.96 190.934 509.984 189.898 509.812 190.987C509.64 192.076 511.542 195.192 516.883 197.276C522.225 199.359 529.547 197.27 529.547 197.27L529.17 189.946Z" fill="#B97964"/>
<path d="M478.835 311.244L58.1512 321.105V249.153H482.882L478.835 311.244Z" fill="#263238"/>
<path opacity="0.5" d="M478.835 311.244L58.1512 321.105V249.153H482.882L478.835 311.244Z" fill="black"/>
<path d="M41.9712 267.614V304.105C41.9688 311.922 47.0624 318.828 54.532 321.133L57.5056 322.037C59.3368 322.605 61.248 322.87 63.164 322.822L82.8112 322.364C80.4776 314.198 80.272 305.571 82.2144 297.303C88.5016 270.543 115.292 253.946 142.053 260.234C168.813 266.521 185.41 293.311 179.122 320.071L379.04 315.317C378.717 312.982 378.559 310.626 378.57 308.268C378.69 280.779 401.07 258.593 428.559 258.712C456.048 258.832 478.235 281.213 478.115 308.702C478.115 309.671 478.037 310.627 478.037 311.583C478.298 311.478 478.574 311.374 478.836 311.242L485.674 308.19C492.417 305.144 496.752 298.431 496.754 291.032V216.713C496.755 209.722 492.882 203.306 486.695 200.052L435.311 173.03C434.723 172.717 434.27 172.198 434.041 171.572C433.525 170.166 434.246 168.609 435.651 168.092L441.938 165.839C442.466 165.658 442.845 165.194 442.917 164.64C443.021 163.837 442.454 163.101 441.65 162.997C417.235 159.591 322.274 147.174 272.356 153.278C214.776 160.325 159.594 210.294 159.594 210.294C117.221 208.71 77.664 223.458 60.6368 230.858C55.1392 233.258 50.9104 237.867 48.9928 243.55L43.164 260.814C42.4 263.002 41.9976 265.298 41.9712 267.614Z" fill="#407BFF"/>
<path d="M379.093 315.318C378.803 313.125 378.658 310.915 378.661 308.703C378.661 307.577 378.7 306.463 378.766 305.35L342.614 290.562C340.498 289.701 338.214 289.33 335.934 289.475L210.192 297.727C208.137 297.857 206.13 298.41 204.298 299.351L180.406 311.638C180.236 314.478 179.829 317.3 179.188 320.073L379.093 315.318Z" fill="#263238"/>
<path d="M496.766 291.033V289.134L476.32 295.394C477.512 299.73 478.116 304.206 478.114 308.702C478.114 309.672 478.036 310.628 478.036 311.584C478.298 311.479 478.573 311.374 478.835 311.243L485.686 308.191C492.429 305.146 496.764 298.433 496.766 291.033Z" fill="#263238"/>
<path d="M47.7736 317.203C49.7248 319.008 52.0576 320.35 54.5976 321.133L57.5712 322.037C59.4024 322.605 61.3136 322.87 63.2296 322.822L82.8768 322.364C82.1656 319.881 81.6528 317.345 81.344 314.78L47.7736 317.203Z" fill="#263238"/>
<path d="M428.473 254.254C426.214 254.253 423.956 254.393 421.714 254.674C391.881 258.399 370.717 285.603 374.442 315.436L379.158 315.318C378.834 312.983 378.677 310.627 378.687 308.27C378.807 280.781 401.188 258.594 428.677 258.714C456.166 258.834 478.352 281.214 478.233 308.703C478.233 309.673 478.154 310.629 478.154 311.585C478.416 311.48 478.691 311.375 478.954 311.244L482.883 309.462C482.883 309.2 482.883 308.951 482.883 308.702C482.847 278.641 458.482 254.282 428.421 254.253L428.473 254.254Z" fill="#263238"/>
<path d="M130.738 254.254C126.087 254.253 121.457 254.847 116.958 256.022C87.8632 263.626 70.4408 293.374 78.044 322.469L82.8768 322.364C80.5432 314.198 80.3376 305.571 82.2808 297.303C88.568 270.543 115.358 253.946 142.119 260.234C168.879 266.521 185.476 293.311 179.189 320.072L184.009 319.954C184.793 316.246 185.188 312.467 185.187 308.678C185.179 278.613 160.802 254.246 130.738 254.254Z" fill="#263238"/>
<path d="M178.119 212.388C177.538 212.881 177.123 213.589 176.95 214.39C176.538 216.29 177.552 218.203 179.216 218.665L199.998 224.49C201.838 225.011 203.748 225.155 205.637 224.915L359.722 205.825C363.472 205.349 366.968 203.409 369.616 200.334L389.83 176.786C390.503 176.007 390.93 174.996 391.041 173.912C391.317 171.232 389.636 168.814 387.286 168.512C350.389 163.619 303.738 159.171 274.278 162.77C235.67 167.483 196.798 196.505 178.119 212.388Z" fill="#407BFF"/>
<path opacity="0.8" d="M178.814 212.388C178.231 212.881 177.818 213.589 177.644 214.39C177.232 216.29 178.246 218.203 179.91 218.665L200.692 224.49C202.533 225.011 204.442 225.155 206.33 224.915L356.967 214.59C360.717 214.114 366.513 207.222 370.611 201.628L390.522 176.786C391.196 176.008 391.622 174.997 391.734 173.913C392.01 171.233 390.329 168.815 387.979 168.513C351.082 163.62 304.43 159.172 274.971 162.771C236.364 167.483 197.494 196.505 178.814 212.388Z" fill="white"/>
<g opacity="0.3">
<path d="M279.471 227.069C278.485 226.714 277.973 225.625 278.328 224.638C278.765 223.417 279.9 222.582 281.197 222.53L299.534 221.757C299.782 221.746 300.03 221.783 300.263 221.866C301.258 222.222 301.776 223.316 301.42 224.311C300.975 225.533 299.838 226.366 298.538 226.42L280.201 227.18C279.953 227.19 279.705 227.153 279.471 227.069Z" fill="black"/>
</g>
<path d="M415.843 174.53C414.222 175.973 414.076 178.457 415.518 180.078L419.867 184.807C420.366 185.338 421 185.722 421.701 185.921L474.971 200.695C475.898 200.946 476.854 201.073 477.814 201.075H488.397C487.846 200.708 487.283 200.368 486.694 200.054L435.31 173.006L435.307 173.004C434.01 172.363 433.478 170.793 434.118 169.495L417.431 173.674C416.842 173.832 416.299 174.126 415.843 174.53Z" fill="#407BFF"/>
<path d="M84.128 237.814L65.952 235.834L55.5096 240.106C53.3144 241.004 51.6744 242.889 51.0896 245.188C50.7472 246.518 50.9392 247.929 51.6264 249.118L51.8096 249.432C52.9776 251.442 55.2432 252.55 57.5464 252.235L68.0248 250.794C69.0464 250.648 70.0144 250.247 70.8408 249.629L82.9304 240.46L84.128 237.814Z" fill="white"/>
<path d="M159.632 210.27L162.526 211.094C164.776 211.736 167.197 211.215 168.984 209.706C185.828 195.454 215.116 173.594 246.722 163.403C246.862 163.357 246.98 163.26 247.052 163.132C247.211 162.848 247.11 162.489 246.826 162.33L242.897 160.313C197.302 176.122 159.632 210.27 159.632 210.27Z" fill="#407BFF"/>
<path opacity="0.8" d="M159.632 210.27L162.526 211.094C164.776 211.736 167.197 211.215 168.984 209.706C185.828 195.454 215.116 173.594 246.722 163.403C246.862 163.357 246.98 163.26 247.052 163.132C247.211 162.848 247.11 162.489 246.826 162.33L242.897 160.313C197.302 176.122 159.632 210.27 159.632 210.27Z" fill="white"/>
<path opacity="0.2" d="M332.371 229.51L179.188 240.465L182.071 259.357C182.954 265.145 185.1 270.667 188.356 275.533L201.159 294.667L331.901 276.991L393.711 229.51H332.371Z" fill="white"/>
<path d="M428.425 350.166C451.327 350.166 469.894 331.6 469.894 308.698C469.894 285.795 451.327 267.229 428.425 267.229C405.522 267.229 386.956 285.795 386.956 308.698C386.956 331.6 405.522 350.166 428.425 350.166Z" fill="#263238"/>
<path opacity="0.4" d="M428.425 334.121C442.466 334.121 453.848 322.738 453.848 308.698C453.848 294.657 442.466 283.274 428.425 283.274C414.384 283.274 403.002 294.657 403.002 308.698C403.002 322.738 414.384 334.121 428.425 334.121Z" fill="white"/>
<g opacity="0.3">
<path d="M430.464 287.863V300.896C430.464 302.018 429.555 302.926 428.434 302.926H428.421C427.299 302.926 426.39 302.018 426.39 300.896V287.863C426.39 286.742 427.299 285.833 428.421 285.833H428.434C429.554 285.833 430.464 286.742 430.464 287.863Z" fill="white"/>
</g>
<g opacity="0.3">
<path d="M430.464 316.509V329.542C430.464 330.663 429.555 331.572 428.434 331.572H428.421C427.299 331.572 426.39 330.663 426.39 329.542V316.509C426.39 315.387 427.299 314.478 428.421 314.478H428.434C429.554 314.479 430.464 315.388 430.464 316.509Z" fill="white"/>
</g>
<g opacity="0.3">
<path d="M436.193 306.566C435.218 307.122 433.979 306.782 433.424 305.808C433.423 305.806 433.422 305.805 433.421 305.802C432.862 304.83 433.198 303.589 434.17 303.03L445.448 296.482C446.425 295.918 447.674 296.252 448.238 297.228C448.792 298.202 448.459 299.441 447.491 300.005L436.214 306.554C436.207 306.558 436.2 306.562 436.193 306.566Z" fill="white"/>
</g>
<g opacity="0.3">
<path d="M411.387 320.834C410.415 321.393 409.174 321.057 408.616 320.085C408.615 320.083 408.614 320.082 408.613 320.079C408.054 319.107 408.39 317.866 409.362 317.307L420.64 310.758L420.641 310.758C421.61 310.194 422.853 310.522 423.417 311.492C423.982 312.466 423.654 313.713 422.683 314.282L411.393 320.83C411.391 320.833 411.389 320.834 411.387 320.834Z" fill="white"/>
</g>
<g opacity="0.3">
<path d="M445.448 320.884L434.17 314.335C433.194 313.77 432.86 312.522 433.424 311.546C433.993 310.574 435.241 310.246 436.214 310.812L447.491 317.361C448.459 317.925 448.793 319.164 448.238 320.138C447.674 321.114 446.425 321.447 445.448 320.884Z" fill="white"/>
</g>
<g opacity="0.3">
<path d="M423.414 305.813C422.852 306.783 421.61 307.115 420.64 306.554L409.362 300.006C409.361 300.005 409.359 300.003 409.357 300.002C408.386 299.441 408.054 298.199 408.615 297.229C408.616 297.227 408.618 297.226 408.618 297.223C409.18 296.253 410.422 295.921 411.392 296.482L422.682 303.03L422.683 303.031C423.652 303.595 423.98 304.838 423.416 305.807C423.416 305.81 423.414 305.811 423.414 305.813Z" fill="white"/>
</g>
<path d="M425.014 308.69C425.014 306.809 426.539 305.284 428.42 305.284C428.424 305.284 428.429 305.284 428.433 305.284C430.321 305.284 431.851 306.814 431.851 308.702C431.851 310.59 430.321 312.121 428.433 312.121C426.545 312.121 425.014 310.59 425.014 308.702C425.014 308.698 425.014 308.694 425.014 308.69Z" fill="#263238"/>
<path d="M130.736 350.174C153.639 350.174 172.205 331.607 172.205 308.705C172.205 285.802 153.639 267.236 130.736 267.236C107.833 267.236 89.2672 285.802 89.2672 308.705C89.2672 331.607 107.833 350.174 130.736 350.174Z" fill="#263238"/>
<path opacity="0.4" d="M130.736 334.129C144.777 334.129 156.16 322.746 156.16 308.705C156.16 294.664 144.777 283.281 130.736 283.281C116.695 283.281 105.312 294.664 105.312 308.705C105.312 322.746 116.695 334.129 130.736 334.129Z" fill="white"/>
<g opacity="0.3">
<path d="M132.768 287.863V300.896C132.768 302.018 131.859 302.926 130.738 302.926H130.725C129.603 302.926 128.694 302.018 128.694 300.896V287.863C128.694 286.742 129.603 285.833 130.725 285.833H130.738C131.858 285.833 132.768 286.742 132.768 287.863Z" fill="white"/>
</g>
<g opacity="0.3">
<path d="M132.768 316.509V329.542C132.768 330.663 131.859 331.572 130.738 331.572H130.725C129.603 331.572 128.694 330.663 128.694 329.542V316.509C128.694 315.387 129.603 314.478 130.725 314.478H130.738C131.858 314.479 132.768 315.388 132.768 316.509Z" fill="white"/>
</g>
<g opacity="0.3">
<path d="M138.49 306.57C137.52 307.119 136.289 306.778 135.741 305.808L135.74 305.807C135.176 304.838 135.505 303.595 136.474 303.031L147.765 296.482C147.766 296.482 147.768 296.481 147.77 296.479C148.742 295.921 149.984 296.256 150.542 297.229C150.543 297.23 150.544 297.232 150.546 297.234C151.104 298.206 150.769 299.448 149.796 300.006L138.518 306.555C138.508 306.56 138.499 306.566 138.49 306.57Z" fill="white"/>
</g>
<g opacity="0.3">
<path d="M110.92 320.085C110.919 320.083 110.918 320.082 110.917 320.079C110.358 319.107 110.694 317.866 111.666 317.307L122.944 310.758C123.917 310.193 125.165 310.521 125.734 311.492C126.297 312.469 125.963 313.718 124.987 314.282L113.71 320.83C112.733 321.395 111.484 321.061 110.92 320.085Z" fill="white"/>
</g>
<g opacity="0.3">
<path d="M150.538 320.142C149.978 321.113 148.735 321.445 147.765 320.884L136.474 314.335C135.503 313.766 135.175 312.518 135.741 311.546L135.742 311.545C136.306 310.576 137.549 310.248 138.518 310.812L149.795 317.361C149.797 317.362 149.798 317.363 149.801 317.364C150.771 317.926 151.103 319.167 150.542 320.138C150.541 320.139 150.54 320.141 150.538 320.142Z" fill="white"/>
</g>
<g opacity="0.3">
<path d="M125.722 305.829C125.155 306.796 123.911 307.122 122.944 306.554L111.666 300.006C111.665 300.005 111.663 300.003 111.662 300.002C110.691 299.441 110.359 298.199 110.92 297.229C111.485 296.253 112.734 295.918 113.71 296.482L124.987 303.031C124.989 303.032 124.99 303.034 124.993 303.034C125.963 303.596 126.295 304.838 125.734 305.808C125.73 305.814 125.726 305.822 125.722 305.829Z" fill="white"/>
</g>
<path d="M130.738 305.284C132.626 305.284 134.156 306.814 134.156 308.702C134.156 310.59 132.626 312.121 130.738 312.121C128.85 312.121 127.319 310.59 127.319 308.702C127.318 306.814 128.85 305.284 130.738 305.284Z" fill="#263238"/>
<path opacity="0.3" d="M492.415 230.468C493.797 230.038 494.568 228.57 494.138 227.188C493.657 218.458 491.801 210.685 486.449 205.34C486.09 204.165 484.962 203.397 483.738 203.493L452.132 206.479C451.582 206.538 451.065 206.77 450.654 207.141C449.582 208.111 449.498 209.768 450.468 210.841L459.52 220.6C459.834 220.938 460.232 221.186 460.673 221.321L490.93 230.49C491.416 230.626 491.933 230.618 492.415 230.468Z" fill="black"/>
<path d="M176.95 214.375C176.538 216.274 177.552 218.188 179.216 218.65L199.998 224.474C201.838 224.996 203.38 225.353 205.774 225.461L212.317 225.027L206.146 191.69C191.894 201.051 190.918 201.478 178.119 212.373C177.538 212.866 177.124 213.574 176.95 214.375Z" fill="#263238"/>
<path d="M312.326 161.694L299.271 218.622L316.348 217.394L324.146 162.227C320.15 161.999 316.21 161.822 312.326 161.694Z" fill="#263238"/>
<path d="M366.513 206.748L390.498 176.786C391.188 176.002 391.625 174.974 391.736 173.872C392.006 171.191 390.319 168.778 387.97 168.483C383.055 167.816 377.826 167.174 372.598 166.546" fill="#263238"/>
<path d="M195.851 220.162C191.699 220.211 188.294 216.886 188.245 212.734C188.205 209.202 190.623 206.118 194.062 205.314L204.081 202.966L206.63 219.754L196.05 220.158C195.984 220.16 195.918 220.162 195.851 220.162Z" fill="#407BFF"/>
<path opacity="0.3" d="M203.697 219.868L206.63 219.754L204.081 202.966L201.22 203.642L203.697 219.868Z" fill="black"/>
<path opacity="0.6" d="M315.994 217.398C316.117 223.298 316.053 229.538 315.415 232.727C313.998 239.813 302.953 291.638 302.953 291.638" stroke="black" stroke-width="0.5" stroke-miterlimit="10" stroke-linecap="round" stroke-linejoin="round"/>
<path opacity="0.6" d="M176.858 215.626C176.858 215.626 180.159 260.437 185.186 269.502C190.088 278.343 204.297 299.35 204.297 299.35" stroke="black" stroke-width="0.5" stroke-miterlimit="10" stroke-linecap="round" stroke-linejoin="round"/>
<path opacity="0.6" d="M165.33 211.364C165.33 211.364 130.013 220.09 119.62 221.754C111.087 223.122 76.3944 231.562 65.952 235.834" stroke="black" stroke-width="0.5" stroke-miterlimit="10" stroke-linecap="round" stroke-linejoin="round"/>
<path opacity="0.8" d="M415.843 174.53C414.222 175.973 414.076 178.457 415.518 180.078L419.867 184.807C420.366 185.338 421 185.722 421.701 185.921L474.971 200.695C475.898 200.946 476.854 201.073 477.814 201.075H488.397C487.846 200.708 487.283 200.368 486.694 200.054L435.31 173.006L435.307 173.004C434.01 172.363 433.478 170.793 434.118 169.495L417.431 173.674C416.842 173.832 416.299 174.126 415.843 174.53Z" fill="white"/>
<path d="M215.768 208.576C215.289 208.866 209.633 214.711 209.633 214.711L210.736 221.957L217.847 214.616L215.768 208.576Z" fill="#263238"/>
<path d="M224.286 223.69C223.036 224.306 221.522 223.794 220.906 222.543L209.622 199.682C209.006 198.431 209.518 196.918 210.769 196.301C212.019 195.684 213.533 196.197 214.15 197.447L225.433 220.309C226.05 221.558 225.537 223.073 224.286 223.69Z" fill="#263238"/>
<path d="M236.598 196.171C236.598 196.171 242.195 218.503 245.476 219.346C251.42 220.873 271.875 219.163 271.476 218.503L270.605 208.231C270.605 208.231 249.99 211.642 250.15 211.279L242.38 193.922L236.598 196.171Z" fill="#EBB373"/>
<path d="M241.746 195.271C241.746 195.271 243.585 193.56 243.635 191.483C243.686 189.406 244.278 187.762 244.21 186.216C244.141 184.67 242.846 186.31 242.335 187.322C241.824 188.334 241.234 189.476 240.535 188.969C239.838 188.462 236.8 181.691 235.752 181.098C234.705 180.505 234.854 181.754 234.854 181.754C234.854 181.754 234.072 180.129 233.344 180.264C233.155 180.299 232.772 180.687 233.012 181.483C233.553 183.274 234.881 186.974 234.881 186.974C234.809 186.761 232.843 182.31 232.462 181.682C231.963 180.862 231.31 180.729 230.843 181.033C230.179 181.466 232.428 187.067 232.358 187.37C232.358 187.37 231.17 184.102 230.159 183.946C229.148 183.791 229.783 185.889 230.694 187.632C231.53 189.23 232.75 192.584 233.757 194.126C234.998 196.027 236.258 197.024 238.361 196.702C240.465 196.38 241.746 195.271 241.746 195.271Z" fill="#EBB373"/>
<path opacity="0.3" d="M234.998 181.947C235.591 183.265 236.126 184.61 236.598 185.975" stroke="black" stroke-width="0.25" stroke-miterlimit="10" stroke-linecap="round" stroke-linejoin="round"/>
<path opacity="0.3" d="M232.775 188.654C234.216 187.467 236.012 186.717 237.87 186.526" stroke="black" stroke-width="0.25" stroke-miterlimit="10" stroke-linecap="round" stroke-linejoin="round"/>
<path opacity="0.3" d="M240.076 189.779C239.437 190.191 238.947 190.832 238.718 191.557C238.488 192.282 238.52 193.087 238.806 193.792" stroke="black" stroke-width="0.25" stroke-miterlimit="10" stroke-linecap="round" stroke-linejoin="round"/>
<path d="M294.992 206.69C291.247 201.745 285.305 202.24 281.444 202.918L273.789 204.18C273.547 204.22 273.308 204.277 273.074 204.35L271.327 204.893L254.955 210.137L258.906 220.619L264.253 219.964L263.362 221.41L268.612 221.074L297.257 219.581L297.258 219.58L297.258 213.766C297.259 211.228 296.523 208.712 294.992 206.69Z" fill="#263238"/>
<path d="M293.443 214.938C293.443 214.938 289.847 239.026 287.308 241.578C281.24 247.674 258.786 230.905 258.786 230.905L259.48 224.43L278.875 232.462L282.506 212.002L293.443 214.938Z" fill="#EBB373"/>
<path d="M296.394 213.296C296.219 213.892 294.67 230.693 294.67 230.693L278.222 229.161C278.222 229.161 279.079 224.495 280.324 216.334C281.62 207.835 282.378 203.541 286.59 202.849C294.57 201.538 296.394 213.296 296.394 213.296Z" fill="#263238"/>
<path d="M290.882 175.243C293.361 179.592 294.225 182.194 294.45 186.365C294.712 191.238 294.491 195.542 293.404 196.79C291.978 198.429 276.551 199.967 267.908 199.617C267.594 199.604 267.335 196.86 267.335 196.86C267.335 196.86 266.11 199.54 265.703 199.522C263.345 199.414 261.833 199.327 261.833 199.327C261.833 199.327 263.788 195.302 266.185 180.784C267.355 173.693 274.487 170.862 278.69 170.329C285.694 169.441 290.882 175.243 290.882 175.243Z" fill="#263238"/>
<path d="M270.326 188.938C268.064 185.026 265.818 174.482 275.245 171.23C287.012 167.17 292.282 174.674 293.294 182.111C294.306 189.548 290.113 195.168 282.337 194.605C274.562 194.041 271.891 191.645 270.326 188.938Z" fill="#263238"/>
<path d="M286.664 189.466L279.712 195.861L278.374 197.286C278.745 198.294 279.054 199.328 279.161 200.321C279.371 202.073 278.288 203.394 278.288 203.394L276.728 206.942C280.209 204.213 288.14 202.754 288.14 202.754C286.839 198.205 286.29 193.934 286.664 189.466Z" fill="#EBB373"/>
<path opacity="0.2" d="M279.197 200.706C281.074 199.706 283.165 197.918 283.025 195.758C282.959 194.849 282.804 193.982 282.613 193.422L278.675 198.162C278.942 198.969 279.03 199.498 279.197 200.706Z" fill="black"/>
<path d="M288.878 182.363C287.936 189.158 287.682 192.046 283.994 195.461C278.447 200.598 270.382 198.409 269.293 191.58C268.313 185.434 270.017 175.354 276.849 172.797C283.581 170.278 289.819 175.568 288.878 182.363Z" fill="#EBB373"/>
<path d="M280.207 184.438C280.137 185.124 279.689 185.67 279.205 185.658C278.722 185.646 278.386 185.08 278.457 184.394C278.526 183.709 278.975 183.163 279.458 183.175C279.942 183.187 280.277 183.753 280.207 184.438Z" fill="#263238"/>
<path d="M273.118 183.985C273.05 184.639 272.61 185.16 272.135 185.148C271.661 185.136 271.331 184.596 271.4 183.942C271.468 183.287 271.909 182.766 272.383 182.778C272.858 182.79 273.187 183.33 273.118 183.985Z" fill="#263238"/>
<path d="M281.289 181.964C281.194 181.978 281.098 181.958 281.022 181.898C279.851 180.978 278.574 181.381 278.558 181.386C278.369 181.446 278.173 181.355 278.124 181.178C278.076 181.002 278.191 180.807 278.383 180.744C278.45 180.722 280.054 180.214 281.507 181.358C281.652 181.471 281.661 181.685 281.527 181.834C281.463 181.906 281.377 181.95 281.289 181.964Z" fill="#263238"/>
<path d="M270.858 180.559C270.785 180.52 270.727 180.456 270.703 180.374C270.653 180.203 270.762 180.022 270.945 179.97C272.783 179.44 273.986 180.376 274.036 180.417C274.178 180.53 274.191 180.734 274.065 180.87C273.939 181.007 273.722 181.026 273.579 180.914C273.533 180.876 272.589 180.163 271.127 180.585C271.032 180.613 270.936 180.601 270.858 180.559Z" fill="#263238"/>
<path d="M283.458 176.031C281.181 178.21 281.861 186.872 287.903 188.28C295.001 186.954 290.253 169.527 283.458 176.031Z" fill="#263238"/>
<path d="M274.622 190.442C275.138 191.323 275.729 193.011 275.729 193.011C275.891 192.985 276.054 192.959 276.214 192.925C278.41 192.517 279.294 191.602 279.609 190.712C279.778 190.224 279.772 189.739 279.716 189.353C279.656 188.906 279.511 188.6 279.511 188.6C278.476 189.512 276.458 190.05 275.368 190.292C274.913 190.398 274.622 190.442 274.622 190.442Z" fill="#263238"/>
<path d="M275.368 190.291L275.714 191.04C277.782 190.651 279.185 190.1 279.716 189.352C279.656 188.905 279.511 188.599 279.511 188.599C278.476 189.511 276.458 190.049 275.368 190.291Z" fill="white"/>
<path d="M276.214 192.925C278.41 192.517 279.294 191.602 279.609 190.712C278.866 190.88 277.989 191.165 277.26 191.648C276.702 192.015 276.394 192.479 276.214 192.925Z" fill="#DC5753"/>
<path d="M275.054 183.594C275.054 183.594 273.626 186.61 272.214 188.054C273.048 188.938 274.626 188.566 274.626 188.566L275.054 183.594Z" fill="#E4873E"/>
<path d="M278.112 182.787L279.661 183.23C278.914 183.995 278.112 182.787 278.112 182.787Z" fill="#263238"/>
<path d="M271.116 182.394L272.665 182.837C271.918 183.602 271.116 182.394 271.116 182.394Z" fill="#263238"/>
<path d="M276.965 171.337C274.228 172.126 271.149 176.657 270.589 178.429C274.392 179.234 284.888 176.123 284.888 176.123C284.888 176.123 291.693 178.346 288.363 174.69C285.034 171.033 276.965 171.337 276.965 171.337Z" fill="#263238"/>
<path d="M290.684 188.02C289.813 189.382 288.462 190.2 287.248 190.446C285.421 190.815 284.622 187.867 285.323 186.086C285.954 184.483 287.778 183.487 289.52 183.924C291.236 184.354 291.68 186.463 290.684 188.02Z" fill="#EBB373"/>
<path d="M267.223 179.518C266.7 182.505 266.169 185.518 265.024 188.325C263.879 191.132 261.503 196.922 258.906 198.486" stroke="#263238" stroke-width="0.5" stroke-miterlimit="10"/>
<path d="M286.708 190.242C286.675 190.944 287.218 191.541 287.922 191.573C288.625 191.606 289.221 191.062 289.253 190.359C289.286 189.657 288.742 189.06 288.039 189.028C287.337 188.996 286.741 189.539 286.708 190.242Z" fill="#407BFF"/>
<path opacity="0.1" d="M289.346 186.008C288.751 185.81 288.069 185.901 287.546 186.246C287.024 186.592 286.674 187.185 286.623 187.809" stroke="black" stroke-width="0.5" stroke-miterlimit="10" stroke-linecap="round" stroke-linejoin="round"/>
<path d="M267.11 228.913L259.48 224.431L257.399 221.768C257.399 221.768 255.258 219.237 253.529 219.075C252.294 218.959 251.018 219.598 251.018 219.598C251.018 219.598 249.014 220.866 250.242 222.766C250.242 222.766 248.26 223.787 249.61 225.997C249.61 225.997 247.715 226.03 249.333 228.014C250.95 229.998 252.867 230.392 254.39 230.626C255.914 230.858 257.746 230.328 257.746 230.328L266.169 235.864L267.11 228.913Z" fill="#EBB373"/>
<path d="M279.662 220.52L281.041 211.891L276.842 220.618L279.662 220.52Z" fill="black"/>
<path d="M264.253 219.962L267.686 212.993L261.094 220.35L264.253 219.962Z" fill="black"/>
</svg>
