<?xml version="1.0" standalone="no"?><svg xmlns="http://www.w3.org/2000/svg" viewBox="0 0 1440 320"><path fill="#0099ff" fill-opacity="1" d="M0,96L24,90.7C48,85,96,75,144,96C192,117,240,171,288,186.7C336,203,384,181,432,176C480,171,528,181,576,170.7C624,160,672,128,720,138.7C768,149,816,203,864,213.3C912,224,960,192,1008,186.7C1056,181,1104,203,1152,197.3C1200,192,1248,160,1296,149.3C1344,139,1392,149,1416,154.7L1440,160L1440,320L1416,320C1392,320,1344,320,1296,320C1248,320,1200,320,1152,320C1104,320,1056,320,1008,320C960,320,912,320,864,320C816,320,768,320,720,320C672,320,624,320,576,320C528,320,480,320,432,320C384,320,336,320,288,320C240,320,192,320,144,320C96,320,48,320,24,320L0,320Z"></path></svg>